<svg xmlns="http://www.w3.org/2000/svg" style="display: none">
  <symbol id="refresh" viewBox="0 0 24 24">
    <path
      d="M12 4V1L8 5l4 4V6c3.31 0 6 2.69 6 6 0 1.01-.25 1.97-.7 2.8l1.46 1.46C19.54 15.03 20 13.57 20 12c0-4.42-3.58-8-8-8zm0 14c-3.31 0-6-2.69-6-6 0-1.01.25-1.97.7-2.8L5.24 7.74C4.46 8.97 4 10.43 4 12c0 4.42 3.58 8 8 8v3l4-4-4-4v3z" />
    <path d="M0 0h24v24H0z" fill="none" />
  </symbol>

  <symbol id="star" viewBox="0 0 24 24">
    <title>Star</title>
    <path d="M0 0h24v24H0z" fill="none" />
    <path
      d="M12 17.27L18.18 21l-1.64-7.03L22 9.24l-7.19-.61L12 2 9.19 8.63 2 9.24l5.46 4.73L5.82 21z" />
    <path d="M0 0h24v24H0z" fill="none" />
  </symbol>

  <symbol id="chevron-down" viewBox="0 0 24 24">
    <title>Chevron down</title>
    <path d="M7.41 7.84L12 12.42l4.59-4.58L18 9.25l-6 6-6-6z" />
    <path d="M0-.75h24v24H0z" fill="none" />
  </symbol>

  <symbol id="first-page" viewBox="0 0 24 24">
    <path d="M18.41 16.59L13.82 12l4.59-4.59L17 6l-6 6 6 6zM6 6h2v12H6z" />
    <path fill="none" d="M24 24H0V0h24v24z" />
  </symbol>

  <symbol id="running" viewBox="0 0 24 24">
    <title>Running</title>
    <path fill="none" d="M0 0h24v24H0z" />
    <path
      d="M13.49 5.48c1.1 0 2-.9 2-2s-.9-2-2-2-2 .9-2 2 .9 2 2 2zm-3.6 13.9l1-4.4 2.1 2v6h2v-7.5l-2.1-2 .6-3c1.3 1.5 3.3 2.5 5.5 2.5v-2c-1.9 0-3.5-1-4.3-2.4l-1-1.6c-.4-.6-1-1-1.7-1-.3 0-.5.1-.8.1l-5.2 2.2v4.7h2v-3.4l1.8-.7-1.6 8.1-4.9-1-.4 2 7 1.4z" />
  </symbol>

  <symbol id="hamburger" viewBox="0 0 24 24">
    <title>Hamburger</title>
    <path d="M0 0h24v24H0z" fill="none" />
    <path d="M3 18h18v-2H3v2zm0-5h18v-2H3v2zm0-7v2h18V6H3z" />
  </symbol>

  <symbol id="search" viewBox="0 0 24 24">
    <title>Search</title>
    <path
      d="M15.5 14h-.79l-.28-.27C15.41 12.59 16 11.11 16 9.5 16 5.91 13.09 3 9.5 3S3 5.91 3 9.5 5.91 16 9.5 16c1.61 0 3.09-.59 4.23-1.57l.27.28v.79l5 4.99L20.49 19l-4.99-5zm-6 0C7.01 14 5 11.99 5 9.5S7.01 5 9.5 5 14 7.01 14 9.5 11.99 14 9.5 14z" />
    <path d="M0 0h24v24H0z" fill="none" />
  </symbol>

  <symbol id="cart" viewBox="0 0 24 24">
    <title>Shopping cart</title>
    <path
      d="M7 18c-1.1 0-1.99.9-1.99 2S5.9 22 7 22s2-.9 2-2-.9-2-2-2zM1 2v2h2l3.6 7.59-1.35 2.45c-.16.28-.25.61-.25.96 0 1.1.9 2 2 2h12v-2H7.42c-.14 0-.25-.11-.25-.25l.03-.12.9-1.63h7.45c.75 0 1.41-.41 1.75-1.03l3.58-6.49c.08-.14.12-.31.12-.48 0-.55-.45-1-1-1H5.21l-.94-2H1zm16 16c-1.1 0-1.99.9-1.99 2s.89 2 1.99 2 2-.9 2-2-.9-2-2-2z" />
    <path d="M0 0h24v24H0z" fill="none" />
  </symbol>

  <symbol id="cart-plus" viewBox="0 0 24 24">
    <path d="M0 0h24v24H0zm18.31 6l-2.76 5z" fill="none" />
    <path
      d="M11 9h2V6h3V4h-3V1h-2v3H8v2h3v3zm-4 9c-1.1 0-1.99.9-1.99 2S5.9 22 7 22s2-.9 2-2-.9-2-2-2zm10 0c-1.1 0-1.99.9-1.99 2s.89 2 1.99 2 2-.9 2-2-.9-2-2-2zm-9.83-3.25l.03-.12.9-1.63h7.45c.75 0 1.41-.41 1.75-1.03l3.86-7.01L19.42 4h-.01l-1.1 2-2.76 5H8.53l-.13-.27L6.16 6l-.95-2-.94-2H1v2h2l3.6 7.59-1.35 2.45c-.16.28-.25.61-.25.96 0 1.1.9 2 2 2h12v-2H7.42c-.13 0-.25-.11-.25-.25z" />
  </symbol>

  <symbol id="user" viewBox="0 0 24 24">
    <title>User</title>
    <path
      d="M12 12c2.21 0 4-1.79 4-4s-1.79-4-4-4-4 1.79-4 4 1.79 4 4 4zm0 2c-2.67 0-8 1.34-8 4v2h16v-2c0-2.66-5.33-4-8-4z" />
    <path d="M0 0h24v24H0z" fill="none" />
  </symbol>

  <symbol id="location" viewBox="0 0 24 24">
    <title>Location</title>
    <path d="M0 0h24v24H0z" fill="none" />
    <path
      d="M12 2C8.13 2 5 5.13 5 9c0 5.25 7 13 7 13s7-7.75 7-13c0-3.87-3.13-7-7-7zm0 9.5c-1.38 0-2.5-1.12-2.5-2.5s1.12-2.5 2.5-2.5 2.5 1.12 2.5 2.5-1.12 2.5-2.5 2.5z" />
  </symbol>

  <symbol id="shipping" viewBox="0 0 24 24">
    <title>Shipping</title>
    <path d="M0 0h24v24H0z" fill="none" />
    <path
      d="M20 8h-3V4H3c-1.1 0-2 .9-2 2v11h2c0 1.66 1.34 3 3 3s3-1.34 3-3h6c0 1.66 1.34 3 3 3s3-1.34 3-3h2v-5l-3-4zM6 18.5c-.83 0-1.5-.67-1.5-1.5s.67-1.5 1.5-1.5 1.5.67 1.5 1.5-.67 1.5-1.5 1.5zm13.5-9l1.96 2.5H17V9.5h2.5zm-1.5 9c-.83 0-1.5-.67-1.5-1.5s.67-1.5 1.5-1.5 1.5.67 1.5 1.5-.67 1.5-1.5 1.5z" />
  </symbol>

  <symbol id="check" viewBox="0 0 24 24">
    <path d="M0 0h24v24H0z" fill="none" />
    <path d="M9 16.17L4.83 12l-1.42 1.41L9 19 21 7l-1.41-1.41z" />
  </symbol>

  <symbol id="checklist" viewBox="0 0 24 24">
    <rect fill="none" height="24" width="24" />
    <path
      d="M22,7h-9v2h9V7z M22,15h-9v2h9V15z M5.54,11L2,7.46l1.41-1.41l2.12,2.12l4.24-4.24l1.41,1.41L5.54,11z M5.54,19L2,15.46 l1.41-1.41l2.12,2.12l4.24-4.24l1.41,1.41L5.54,19z" />
  </symbol>

  <symbol id="clear" viewBox="0 0 24 24">
    <path
      d="M19 6.41L17.59 5 12 10.59 6.41 5 5 6.41 10.59 12 5 17.59 6.41 19 12 13.41 17.59 19 19 17.59 13.41 12z" />
    <path d="M0 0h24v24H0z" fill="none" />
  </symbol>

  <symbol id="mail" viewBox="0 0 24 24">
    <path
      d="M20 4H4c-1.1 0-1.99.9-1.99 2L2 18c0 1.1.9 2 2 2h16c1.1 0 2-.9 2-2V6c0-1.1-.9-2-2-2zm0 4l-8 5-8-5V6l8 5 8-5v2z" />
    <path d="M0 0h24v24H0z" fill="none" />
  </symbol>

  <symbol id="code" viewBox="0 0 24 24">
    <path fill="none" d="M0 0h24v24H0V0z" />
    <path
      d="M9.4 16.6L4.8 12l4.6-4.6L8 6l-6 6 6 6 1.4-1.4zm5.2 0l4.6-4.6-4.6-4.6L16 6l6 6-6 6-1.4-1.4z" />
  </symbol>

  <symbol id="upload" viewBox="0 0 24 24">
    <path d="M0 0h24v24H0z" fill="none" />
    <path
      d="M19.35 10.04C18.67 6.59 15.64 4 12 4 9.11 4 6.6 5.64 5.35 8.04 2.34 8.36 0 10.91 0 14c0 3.31 2.69 6 6 6h13c2.76 0 5-2.24 5-5 0-2.64-2.05-4.78-4.65-4.96zM14 13v4h-4v-4H7l5-5 5 5h-3z" />
  </symbol>

  <symbol id="file-upload" viewBox="0 0 24 24">
    <path d="M0 0h24v24H0z" fill="none" />
    <path d="M9 16h6v-6h4l-7-7-7 7h4zm-4 2h14v2H5z" />
  </symbol>

  <symbol id="warning" viewBox="0 0 24 24">
    <path d="M0 0h24v24H0z" fill="none" />
    <path d="M1 21h22L12 2 1 21zm12-3h-2v-2h2v2zm0-4h-2v-4h2v4z" />
  </symbol>

  <symbol id="help" viewBox="0 0 24 24">
    <path d="M0 0h24v24H0z" fill="none" />
    <path
      d="M12 2C6.48 2 2 6.48 2 12s4.48 10 10 10 10-4.48 10-10S17.52 2 12 2zm1 17h-2v-2h2v2zm2.07-7.75l-.9.92C13.45 12.9 13 13.5 13 15h-2v-.5c0-1.1.45-2.1 1.17-2.83l1.24-1.26c.37-.36.59-.86.59-1.41 0-1.1-.9-2-2-2s-2 .9-2 2H8c0-2.21 1.79-4 4-4s4 1.79 4 4c0 .88-.36 1.68-.93 2.25z" />
  </symbol>

  <symbol id="puzzle" viewBox="0 0 24 24">
    <path d="M0 0h24v24H0z" fill="none" />
    <path
      d="M20.5 11H19V7c0-1.1-.9-2-2-2h-4V3.5C13 2.12 11.88 1 10.5 1S8 2.12 8 3.5V5H4c-1.1 0-1.99.9-1.99 2v3.8H3.5c1.49 0 2.7 1.21 2.7 2.7s-1.21 2.7-2.7 2.7H2V20c0 1.1.9 2 2 2h3.8v-1.5c0-1.49 1.21-2.7 2.7-2.7 1.49 0 2.7 1.21 2.7 2.7V22H17c1.1 0 2-.9 2-2v-4h1.5c1.38 0 2.5-1.12 2.5-2.5S21.88 11 20.5 11z" />
  </symbol>

  <symbol id="info" viewBox="0 0 24 24">
    <path d="M0 0h24v24H0z" fill="none" />
    <path
      d="M12 2C6.48 2 2 6.48 2 12s4.48 10 10 10 10-4.48 10-10S17.52 2 12 2zm1 15h-2v-6h2v6zm0-8h-2V7h2v2z" />
  </symbol>

  <symbol id="delete" viewBox="0 0 24 24">
    <path d="M0 0h24v24H0V0z" fill="none" />
    <path
      d="M6 19c0 1.1.9 2 2 2h8c1.1 0 2-.9 2-2V7H6v12zm2.46-7.12l1.41-1.41L12 12.59l2.12-2.12 1.41 1.41L13.41 14l2.12 2.12-1.41 1.41L12 15.41l-2.12 2.12-1.41-1.41L10.59 14l-2.13-2.12zM15.5 4l-1-1h-5l-1 1H5v2h14V4z" />
    <path d="M0 0h24v24H0z" fill="none" />
  </symbol>

  <symbol id="archive" viewBox="0 0 24 24">
    <path
      d="M20.54 5.23l-1.39-1.68C18.88 3.21 18.47 3 18 3H6c-.47 0-.88.21-1.16.55L3.46 5.23C3.17 5.57 3 6.02 3 6.5V19c0 1.1.9 2 2 2h14c1.1 0 2-.9 2-2V6.5c0-.48-.17-.93-.46-1.27zM12 17.5L6.5 12H10v-2h4v2h3.5L12 17.5zM5.12 5l.81-1h12l.94 1H5.12z" />
    <path d="M0 0h24v24H0z" fill="none" />
  </symbol>

  <symbol id="save" viewBox="0 0 24 24">
    <path d="M0 0h24v24H0z" fill="none" />
    <path
      d="M17 3H5c-1.11 0-2 .9-2 2v14c0 1.1.89 2 2 2h14c1.1 0 2-.9 2-2V7l-4-4zm-5 16c-1.66 0-3-1.34-3-3s1.34-3 3-3 3 1.34 3 3-1.34 3-3 3zm3-10H5V5h10v4z" />
  </symbol>

  <symbol id="save-alt" viewBox="0 0 24 24">
    <path
      d="M19 12v7H5v-7H3v7c0 1.1.9 2 2 2h14c1.1 0 2-.9 2-2v-7h-2zm-6 .67l2.59-2.58L17 11.5l-5 5-5-5 1.41-1.41L11 12.67V3h2z" />
    <path fill="none" d="M0 0h24v24H0z" />
  </symbol>

  <symbol id="report-off" viewBox="0 0 24 24">
    <path
      d="M11 7h2v2.92l6.91 6.91 1.09-1.1V8.27L15.73 3H8.27L7.18 4.1 11 7.92zm11.27 14.73l-20-20.01L1 2.99l3.64 3.64L3 8.27v7.46L8.27 21h7.46l1.64-1.63L21 23l1.27-1.27zM12 17.3c-.72 0-1.3-.58-1.3-1.3s.58-1.3 1.3-1.3 1.3.58 1.3 1.3-.58 1.3-1.3 1.3z" />
    <path fill="none" d="M0 0h24v24H0z" />
  </symbol>

  <symbol id="typography" viewBox="0 0 24 24">
    <path d="M5 4v3h5.5v12h3V7H19V4z" />
    <path fill="none" d="M0 0h24v24H0V0z" />
  </symbol>

  <symbol id="link" viewBox="0 0 24 24">
    <path d="M0 0h24v24H0z" fill="none" />
    <path
      d="M3.9 12c0-1.71 1.39-3.1 3.1-3.1h4V7H7c-2.76 0-5 2.24-5 5s2.24 5 5 5h4v-1.9H7c-1.71 0-3.1-1.39-3.1-3.1zM8 13h8v-2H8v2zm9-6h-4v1.9h4c1.71 0 3.1 1.39 3.1 3.1s-1.39 3.1-3.1 3.1h-4V17h4c2.76 0 5-2.24 5-5s-2.24-5-5-5z" />
  </symbol>

  <symbol id="buttons" viewBox="0 0 24 24">
    <path fill="none"
      d="M0 0v24h24V0H0zm23 16c0 1.1-.9 2-2 2H3c-1.1 0-2-.9-2-2V8c0-1.1.9-2 2-2h18c1.1 0 2 .9 2 2v8z" />
    <path
      d="M21 6H3c-1.1 0-2 .9-2 2v8c0 1.1.9 2 2 2h18c1.1 0 2-.9 2-2V8c0-1.1-.9-2-2-2zm-10 7H8v3H6v-3H3v-2h3V8h2v3h3v2zm4.5 2c-.83 0-1.5-.67-1.5-1.5s.67-1.5 1.5-1.5 1.5.67 1.5 1.5-.67 1.5-1.5 1.5zm4-3c-.83 0-1.5-.67-1.5-1.5S18.67 9 19.5 9s1.5.67 1.5 1.5-.67 1.5-1.5 1.5z" />
  </symbol>

  <symbol id="inputs" viewBox="0 0 24 24">
    <path d="M0 0h24v24H0z" fill="none" />
    <path
      d="M21 3.01H3c-1.1 0-2 .9-2 2V9h2V4.99h18v14.03H3V15H1v4.01c0 1.1.9 1.98 2 1.98h18c1.1 0 2-.88 2-1.98v-14c0-1.11-.9-2-2-2zM11 16l4-4-4-4v3H1v2h10v3z" />
  </symbol>

  <symbol id="checkbox" viewBox="0 0 24 24">
    <path d="M0 0h24v24H0z" fill="none" />
    <path
      d="M19 3H5c-1.11 0-2 .9-2 2v14c0 1.1.89 2 2 2h14c1.11 0 2-.9 2-2V5c0-1.1-.89-2-2-2zm-9 14l-5-5 1.41-1.41L10 14.17l7.59-7.59L19 8l-9 9z" />
  </symbol>

  <symbol id="photo" viewBox="0 0 24 24">
    <path d="M0 0h24v24H0z" fill="none" />
    <path
      d="M21 19V5c0-1.1-.9-2-2-2H5c-1.1 0-2 .9-2 2v14c0 1.1.9 2 2 2h14c1.1 0 2-.9 2-2zM8.5 13.5l2.5 3.01L14.5 12l4.5 6H5l3.5-4.5z" />
  </symbol>

  <symbol id="table" viewBox="0 0 24 24">
    <path fill="none" d="M0 0h24v24H0V0z" />
    <path
      d="M10 10.02h5V21h-5zM17 21h3c1.1 0 2-.9 2-2v-9h-5v11zm3-18H5c-1.1 0-2 .9-2 2v3h19V5c0-1.1-.9-2-2-2zM3 19c0 1.1.9 2 2 2h3V10H3v9z" />
  </symbol>

  <symbol id="progress" viewBox="0 0 24 24">
    <path d="M0 0h24v24H0z" fill="none" />
    <path
      d="M19 7H5c-1.1 0-2 .9-2 2v6c0 1.1.9 2 2 2h14c1.1 0 2-.9 2-2V9c0-1.1-.9-2-2-2zm0 8H5V9h14v6z" />
  </symbol>

  <symbol id="arrow-right" viewBox="0 0 24 24">
    <path d="M5.88 4.12L13.76 12l-7.88 7.88L8 22l10-10L8 2z" />
    <path fill="none" d="M0 0h24v24H0z" />
  </symbol>

  <symbol id="container" viewBox="0 0 24 24">
    <path d="M0 0h24v24H0z" fill="none" />
    <path
      d="M19 3H5c-1.1 0-2 .9-2 2v14c0 1.1.9 2 2 2h14c1.1 0 2-.9 2-2V5c0-1.1-.9-2-2-2zm0 16H5V5h14v14z" />
  </symbol>

  <symbol id="dialog" viewBox="0 0 24 24">
    <path
      d="M20 2H4c-1.1 0-1.99.9-1.99 2L2 22l4-4h14c1.1 0 2-.9 2-2V4c0-1.1-.9-2-2-2zm-7 9h-2V5h2v6zm0 4h-2v-2h2v2z" />
    <path d="M0 0h24v24H0z" fill="none" />
  </symbol>

  <symbol id="dropdown" viewBox="0 0 24 24">
    <path d="M0 0h24v24H0z" fill="none" />
    <path d="M12 2C6.48 2 2 6.48 2 12s4.48 10 10 10 10-4.48 10-10S17.52 2 12 2zm0 12l-4-4h8l-4 4z" />
  </symbol>

  <symbol id="notify" viewBox="0 0 24 24">
    <path
      d="M12 22c1.1 0 2-.9 2-2h-4c0 1.1.89 2 2 2zm6-6v-5c0-3.07-1.64-5.64-4.5-6.32V4c0-.83-.67-1.5-1.5-1.5s-1.5.67-1.5 1.5v.68C7.63 5.36 6 7.92 6 11v5l-2 2v1h16v-1l-2-2z" />
  </symbol>

  <symbol id="pagination" viewBox="0 0 24 24">
    <path d="M5.59 7.41L10.18 12l-4.59 4.59L7 18l6-6-6-6zM16 6h2v12h-2z" />
    <path fill="none" d="M0 0h24v24H0V0z" />
  </symbol>

  <symbol id="panel" viewBox="0 0 24 24">
    <path fill="none" d="M0 0h24v24H0V0z" />
    <path
      d="M3 18h13v-2H3v2zm0-5h10v-2H3v2zm0-7v2h13V6H3zm18 9.59L17.42 12 21 8.41 19.59 7l-5 5 5 5L21 15.59z" />
  </symbol>

  <symbol id="tag" viewBox="0 0 24 24">
    <path d="M0 0h24v24H0z" fill="none" />
    <path
      d="M17.63 5.84C17.27 5.33 16.67 5 16 5L5 5.01C3.9 5.01 3 5.9 3 7v10c0 1.1.9 1.99 2 1.99L16 19c.67 0 1.27-.33 1.63-.84L22 12l-4.37-6.16z" />
  </symbol>

  <symbol id="article" viewBox="0 0 24 24">
    <path d="M0 0h24v24H0z" fill="none" />
    <path
      d="M12 11.55C9.64 9.35 6.48 8 3 8v11c3.48 0 6.64 1.35 9 3.55 2.36-2.19 5.52-3.55 9-3.55V8c-3.48 0-6.64 1.35-9 3.55zM12 8c1.66 0 3-1.34 3-3s-1.34-3-3-3-3 1.34-3 3 1.34 3 3 3z" />
  </symbol>

  <symbol id="navbar" viewBox="0 0 24 24">
    <path d="M10 20v-6h4v6h5v-8h3L12 3 2 12h3v8z" />
    <path d="M0 0h24v24H0z" fill="none" />
  </symbol>

  <symbol id="gallery" viewBox="0 0 24 24">
    <path d="M0 0h24v24H0z" fill="none" />
    <path
      d="M22 16V4c0-1.1-.9-2-2-2H8c-1.1 0-2 .9-2 2v12c0 1.1.9 2 2 2h12c1.1 0 2-.9 2-2zm-11-4l2.03 2.71L16 11l4 5H8l3-4zM2 6v14c0 1.1.9 2 2 2h14v-2H4V6H2z" />
  </symbol>

  <symbol id="forms" viewBox="0 0 24 24">
    <path
      d="M20 6h-8l-2-2H4c-1.1 0-1.99.9-1.99 2L2 18c0 1.1.9 2 2 2h16c1.1 0 2-.9 2-2V8c0-1.1-.9-2-2-2zm-5 3c1.1 0 2 .9 2 2s-.9 2-2 2-2-.9-2-2 .9-2 2-2zm4 8h-8v-1c0-1.33 2.67-2 4-2s4 .67 4 2v1z" />
    <path d="M0 0h24v24H0z" fill="none" />
  </symbol>

  <symbol id="cards" viewBox="0 0 24 24">
    <path fill="none" d="M0 0h24v24H0V0z" />
    <path d="M4 6H2v14c0 1.1.9 2 2 2h14v-2H4V6z" />
    <path fill="none" d="M0 0h24v24H0V0z" />
    <path
      d="M20 2H8c-1.1 0-2 .9-2 2v12c0 1.1.9 2 2 2h12c1.1 0 2-.9 2-2V4c0-1.1-.9-2-2-2zm0 10l-2.5-1.5L15 12V4h5v8z" />
  </symbol>

  <symbol id="lock" viewBox="0 0 24 24">
    <path d="M0 0h24v24H0z" fill="none" />
    <path
      d="M18 8h-1V6c0-2.76-2.24-5-5-5S7 3.24 7 6v2H6c-1.1 0-2 .9-2 2v10c0 1.1.9 2 2 2h12c1.1 0 2-.9 2-2V10c0-1.1-.9-2-2-2zm-6 9c-1.1 0-2-.9-2-2s.9-2 2-2 2 .9 2 2-.9 2-2 2zm3.1-9H8.9V6c0-1.71 1.39-3.1 3.1-3.1 1.71 0 3.1 1.39 3.1 3.1v2z" />
  </symbol>

  <symbol id="comment-plus" viewBox="0 0 24 24">
    <path fill="none" d="M0 0h24v24H0V0z" />
    <path
      d="M21.99 4c0-1.1-.89-2-1.99-2H4c-1.1 0-2 .9-2 2v12c0 1.1.9 2 2 2h14l4 4-.01-18zM17 11h-4v4h-2v-4H7V9h4V5h2v4h4v2z" />
  </symbol>

  <symbol id="home-work" viewBox="0 0 24 24">
    <path d="M0 0h24v24H0z" fill="none" />
    <path d="M8.17 5.7L1 10.48V21h5v-8h4v8h5V10.25z" />
    <path d="M17 7h2v2h-2z" fill="none" />
    <path d="M10 3v1.51l2 1.33L13.73 7H15v.85l2 1.34V11h2v2h-2v2h2v2h-2v4h6V3H10zm9 6h-2V7h2v2z" />
  </symbol>

  <symbol id="credit-card" viewBox="0 0 24 24">
    <path d="M0 0h24v24H0z" fill="none" />
    <path
      d="M20 4H4c-1.11 0-1.99.89-1.99 2L2 18c0 1.11.89 2 2 2h16c1.11 0 2-.89 2-2V6c0-1.11-.89-2-2-2zm0 14H4v-6h16v6zm0-10H4V6h16v2z" />
  </symbol>

  <symbol id="plus" viewBox="0 0 24 24">
    <path d="M19 13h-6v6h-2v-6H5v-2h6V5h2v6h6v2z" />
    <path d="M0 0h24v24H0z" fill="none" />
  </symbol>

  <symbol id="minus" viewBox="0 0 24 24">
    <path d="M0 0h24v24H0z" fill="none" />
    <path d="M19 13H5v-2h14v2z" />
  </symbol>

  <symbol id="remove-circle" viewBox="0 0 24 24">
    <path d="M0 0h24v24H0z" fill="none" />
    <path
      d="M7 11v2h10v-2H7zm5-9C6.48 2 2 6.48 2 12s4.48 10 10 10 10-4.48 10-10S17.52 2 12 2zm0 18c-4.41 0-8-3.59-8-8s3.59-8 8-8 8 3.59 8 8-3.59 8-8 8z" />
  </symbol>

  <symbol id="edit" viewBox="0 0 24 24">
    <path d="M0 0h24v24H0z" fill="none" />
    <path
      d="M3 17.25V21h3.75L17.81 9.94l-3.75-3.75L3 17.25zM20.71 7.04c.39-.39.39-1.02 0-1.41l-2.34-2.34c-.39-.39-1.02-.39-1.41 0l-1.83 1.83 3.75 3.75 1.83-1.83z" />
  </symbol>

  <symbol id="skip-next" viewBox="0 0 24 24">
    <path d="M6 18l8.5-6L6 6v12zM16 6v12h2V6h-2z" />
    <path d="M0 0h24v24H0z" fill="none" />
  </symbol>

  <symbol id="add-document" viewBox="0 0 24 24">
    <path d="M0 0h24v24H0V0z" fill="none" />
    <path
      d="M13 11h-2v3H8v2h3v3h2v-3h3v-2h-3zm1-9H6c-1.1 0-2 .9-2 2v16c0 1.1.89 2 1.99 2H18c1.1 0 2-.9 2-2V8l-6-6zm4 18H6V4h7v5h5v11z" />
  </symbol>

  <symbol id="sidebar-toggle" viewBox="0 0 24 24">
    <path d="M0 0h24v24H0V0z" fill="none" />
    <path d="M3 15h8v-2H3v2zm0 4h8v-2H3v2zm0-8h8V9H3v2zm0-6v2h8V5H3zm10 0h8v14h-8V5z" />
  </symbol>

  <symbol id="settings" viewBox="0 0 24 24">
    <g>
      <path d="M0,0h24v24H0V0z" fill="none" />
      <path
        d="M19.14,12.94c0.04-0.3,0.06-0.61,0.06-0.94c0-0.32-0.02-0.64-0.07-0.94l2.03-1.58c0.18-0.14,0.23-0.41,0.12-0.61 l-1.92-3.32c-0.12-0.22-0.37-0.29-0.59-0.22l-2.39,0.96c-0.5-0.38-1.03-0.7-1.62-0.94L14.4,2.81c-0.04-0.24-0.24-0.41-0.48-0.41 h-3.84c-0.24,0-0.43,0.17-0.47,0.41L9.25,5.35C8.66,5.59,8.12,5.92,7.63,6.29L5.24,5.33c-0.22-0.08-0.47,0-0.59,0.22L2.74,8.87 C2.62,9.08,2.66,9.34,2.86,9.48l2.03,1.58C4.84,11.36,4.8,11.69,4.8,12s0.02,0.64,0.07,0.94l-2.03,1.58 c-0.18,0.14-0.23,0.41-0.12,0.61l1.92,3.32c0.12,0.22,0.37,0.29,0.59,0.22l2.39-0.96c0.5,0.38,1.03,0.7,1.62,0.94l0.36,2.54 c0.05,0.24,0.24,0.41,0.48,0.41h3.84c0.24,0,0.44-0.17,0.47-0.41l0.36-2.54c0.59-0.24,1.13-0.56,1.62-0.94l2.39,0.96 c0.22,0.08,0.47,0,0.59-0.22l1.92-3.32c0.12-0.22,0.07-0.47-0.12-0.61L19.14,12.94z M12,15.6c-1.98,0-3.6-1.62-3.6-3.6 s1.62-3.6,3.6-3.6s3.6,1.62,3.6,3.6S13.98,15.6,12,15.6z" />
    </g>
  </symbol>

  <symbol id="more-horizontal" viewBox="0 0 24 24">
    <path d="M0 0h24v24H0z" fill="none" />
    <path
      d="M6 10c-1.1 0-2 .9-2 2s.9 2 2 2 2-.9 2-2-.9-2-2-2zm12 0c-1.1 0-2 .9-2 2s.9 2 2 2 2-.9 2-2-.9-2-2-2zm-6 0c-1.1 0-2 .9-2 2s.9 2 2 2 2-.9 2-2-.9-2-2-2z" />
  </symbol>

  <symbol id="more-vertical" viewBox="0 0 24 24">
    <path d="M0 0h24v24H0z" fill="none" />
    <path
      d="M12 8c1.1 0 2-.9 2-2s-.9-2-2-2-2 .9-2 2 .9 2 2 2zm0 2c-1.1 0-2 .9-2 2s.9 2 2 2 2-.9 2-2-.9-2-2-2zm0 6c-1.1 0-2 .9-2 2s.9 2 2 2 2-.9 2-2-.9-2-2-2z" />
  </symbol>


  <symbol id="download" viewBox="0 0 24 24">
    <path d="M0 0h24v24H0z" fill="none" />
    <path d="M19 9h-4V3H9v6H5l7 7 7-7zM5 18v2h14v-2H5z" />
  </symbol>

  <symbol id="lightning" viewBox="0 0 24 24">
    <path d="M0 0h24v24H0z" fill="none" />
    <path d="M7 2v11h3v9l7-12h-4l4-8z" />
  </symbol>

  <symbol id="calendar-view" viewBox="0 0 24 24">
    <g>
      <rect fill="none" height="24" width="24" />
    </g>
    <g>
      <path
        d="M19,4h-1V2h-2v2H8V2H6v2H5C3.89,4,3.01,4.9,3.01,6L3,20c0,1.1,0.89,2,2,2h14c1.1,0,2-0.9,2-2V6C21,4.9,20.1,4,19,4z M19,20 H5V10h14V20z M9,14H7v-2h2V14z M13,14h-2v-2h2V14z M17,14h-2v-2h2V14z M9,18H7v-2h2V18z M13,18h-2v-2h2V18z M17,18h-2v-2h2V18z" />
    </g>
  </symbol>

  <symbol id="date-picker" viewBox="0 0 24 24">
		<path d="M0 0h24v24H0z" fill="none"/><path d="M9 11H7v2h2v-2zm4 0h-2v2h2v-2zm4 0h-2v2h2v-2zm2-7h-1V2h-2v2H8V2H6v2H5c-1.11 0-1.99.9-1.99 2L3 20c0 1.1.89 2 2 2h14c1.1 0 2-.9 2-2V6c0-1.1-.9-2-2-2zm0 16H5V9h14v11z"/>
	</symbol>

  <symbol id="list-view" viewBox="0 0 24 24">
    <rect fill="none" height="24" width="24" />
    <path
      d="M3,14h4v-4H3V14z M3,19h4v-4H3V19z M3,9h4V5H3V9z M8,14h13v-4H8V14z M8,19h13v-4H8V19z M8,5v4h13V5H8z" />
  </symbol>

  <symbol id="documents" viewBox="0 0 24 24">
    <path d="M0 0h24v24H0z" fill="none" />
    <path
      d="M14 2H6c-1.1 0-1.99.9-1.99 2L4 20c0 1.1.89 2 1.99 2H18c1.1 0 2-.9 2-2V8l-6-6zm2 16H8v-2h8v2zm0-4H8v-2h8v2zm-3-5V3.5L18.5 9H13z" />
  </symbol>

  <symbol id="images" viewBox="0 0 24 24">
    <path d="M0 0h24v24H0z" fill="none" />
    <path
      d="M22 16V4c0-1.1-.9-2-2-2H8c-1.1 0-2 .9-2 2v12c0 1.1.9 2 2 2h12c1.1 0 2-.9 2-2zm-11-4l2.03 2.71L16 11l4 5H8l3-4zM2 6v14c0 1.1.9 2 2 2h14v-2H4V6H2z" />
  </symbol>

  <symbol id="content-copy" viewBox="0 0 24 24">
    <path d="M0 0h24v24H0z" fill="none" />
    <path
      d="M16 1H4c-1.1 0-2 .9-2 2v14h2V3h12V1zm3 4H8c-1.1 0-2 .9-2 2v14c0 1.1.9 2 2 2h11c1.1 0 2-.9 2-2V7c0-1.1-.9-2-2-2zm0 16H8V7h11v14z" />
  </symbol>

  <symbol id="darkmode" viewBox="0 0 24 24">
    <rect fill="none" height="24" width="24" />
    <path
      d="M12,3c-4.97,0-9,4.03-9,9s4.03,9,9,9s9-4.03,9-9c0-0.46-0.04-0.92-0.1-1.36c-0.98,1.37-2.58,2.26-4.4,2.26 c-2.98,0-5.4-2.42-5.4-5.4c0-1.81,0.89-3.42,2.26-4.4C12.92,3.04,12.46,3,12,3L12,3z" />
  </symbol>

  <symbol id="lightmode" viewBox="0 0 24 24">
    <rect fill="none" height="24" width="24" />
    <path
      d="M12,7c-2.76,0-5,2.24-5,5s2.24,5,5,5s5-2.24,5-5S14.76,7,12,7L12,7z M2,13l2,0c0.55,0,1-0.45,1-1s-0.45-1-1-1l-2,0 c-0.55,0-1,0.45-1,1S1.45,13,2,13z M20,13l2,0c0.55,0,1-0.45,1-1s-0.45-1-1-1l-2,0c-0.55,0-1,0.45-1,1S19.45,13,20,13z M11,2v2 c0,0.55,0.45,1,1,1s1-0.45,1-1V2c0-0.55-0.45-1-1-1S11,1.45,11,2z M11,20v2c0,0.55,0.45,1,1,1s1-0.45,1-1v-2c0-0.55-0.45-1-1-1 C11.45,19,11,19.45,11,20z M5.99,4.58c-0.39-0.39-1.03-0.39-1.41,0c-0.39,0.39-0.39,1.03,0,1.41l1.06,1.06 c0.39,0.39,1.03,0.39,1.41,0s0.39-1.03,0-1.41L5.99,4.58z M18.36,16.95c-0.39-0.39-1.03-0.39-1.41,0c-0.39,0.39-0.39,1.03,0,1.41 l1.06,1.06c0.39,0.39,1.03,0.39,1.41,0c0.39-0.39,0.39-1.03,0-1.41L18.36,16.95z M19.42,5.99c0.39-0.39,0.39-1.03,0-1.41 c-0.39-0.39-1.03-0.39-1.41,0l-1.06,1.06c-0.39,0.39-0.39,1.03,0,1.41s1.03,0.39,1.41,0L19.42,5.99z M7.05,18.36 c0.39-0.39,0.39-1.03,0-1.41c-0.39-0.39-1.03-0.39-1.41,0l-1.06,1.06c-0.39,0.39-0.39,1.03,0,1.41s1.03,0.39,1.41,0L7.05,18.36z" />
  </symbol>

  <symbol id="forward" viewBox="0 0 24 24">
    <path d="M0 0h24v24H0z" fill="none" />
    <path d="M12 8V4l8 8-8 8v-4H4V8z" />
  </symbol>

  <symbol id="inventory" viewBox="0 0 24 24">
    <g>
      <rect fill="none" height="24" width="24" />
    </g>
    <g>
      <path
        d="M20,2H4C3,2,2,2.9,2,4v3.01C2,7.73,2.43,8.35,3,8.7V20c0,1.1,1.1,2,2,2h14c0.9,0,2-0.9,2-2V8.7c0.57-0.35,1-0.97,1-1.69V4 C22,2.9,21,2,20,2z M15,14H9v-2h6V14z M20,7H4V4h16V7z" />
    </g>
  </symbol>

  <symbol id="history" viewBox="0 0 24 24">
    <path d="M0 0h24v24H0z" fill="none" />
    <path
      d="M13 3c-4.97 0-9 4.03-9 9H1l3.89 3.89.07.14L9 12H6c0-3.87 3.13-7 7-7s7 3.13 7 7-3.13 7-7 7c-1.93 0-3.68-.79-4.94-2.06l-1.42 1.42C8.27 19.99 10.51 21 13 21c4.97 0 9-4.03 9-9s-4.03-9-9-9zm-1 5v5l4.28 2.54.72-1.21-3.5-2.08V8H12z" />
  </symbol>

  <symbol id="future" viewBox="0 0 24 24">
    <g>
      <rect fill="none" height="24" width="24" x="0" />
    </g>
    <g>
      <g>
        <g>
          <path
            d="M21,10.12h-6.78l2.74-2.82c-2.73-2.7-7.15-2.8-9.88-0.1c-2.73,2.71-2.73,7.08,0,9.79s7.15,2.71,9.88,0 C18.32,15.65,19,14.08,19,12.1h2c0,1.98-0.88,4.55-2.64,6.29c-3.51,3.48-9.21,3.48-12.72,0c-3.5-3.47-3.53-9.11-0.02-12.58 s9.14-3.47,12.65,0L21,3V10.12z M12.5,8v4.25l3.5,2.08l-0.72,1.21L11,13V8H12.5z" />
        </g>
      </g>
    </g>
  </symbol>

  <symbol id="read-more" viewBox="0 0 24 24">
    <g>
      <rect fill="none" height="24" width="24" />
    </g>
    <g>
      <g>
        <rect height="2" width="9" x="13" y="7" />
        <rect height="2" width="9" x="13" y="15" />
        <rect height="2" width="6" x="16" y="11" />
        <polygon points="13,12 8,7 8,11 2,11 2,13 8,13 8,17" />
      </g>
    </g>
  </symbol>

  <symbol id="post-add" viewBox="0 0 24 24">
    <g>
      <rect fill="none" height="24" width="24" />
    </g>
    <g>
      <g />
      <g>
        <path
          d="M17,19.22H5V7h7V5H5C3.9,5,3,5.9,3,7v12c0,1.1,0.9,2,2,2h12c1.1,0,2-0.9,2-2v-7h-2V19.22z" />
        <path d="M19,2h-2v3h-3c0.01,0.01,0,2,0,2h3v2.99c0.01,0.01,2,0,2,0V7h3V5h-3V2z" />
        <rect height="2" width="8" x="7" y="9" />
        <polygon points="7,12 7,14 15,14 15,12 12,12" />
        <rect height="2" width="8" x="7" y="15" />
      </g>
    </g>
  </symbol>

  <symbol id="sort" viewBox="0 0 24 24">
    <path d="M0 0h24v24H0z" fill="none" />
    <path
      d="M14 5h8v2h-8zm0 5.5h8v2h-8zm0 5.5h8v2h-8zM2 11.5C2 15.08 4.92 18 8.5 18H9v2l3-3-3-3v2h-.5C6.02 16 4 13.98 4 11.5S6.02 7 8.5 7H12V5H8.5C4.92 5 2 7.92 2 11.5z" />
  </symbol>

  <symbol id="documentation" viewBox="0 0 24 24">
    <path d="M0 0h24v24H0z" fill="none" />
    <path d="M5 13.18v4L12 21l7-3.82v-4L12 17l-7-3.82zM12 3L1 9l11 6 9-4.91V17h2V9L12 3z" />
  </symbol>

  <symbol id="quotes" viewBox="0 0 24 24">
    <g>
      <rect fill="none" height="24" width="24" />
      <path
        d="M14,2H6C4.9,2,4.01,2.9,4.01,4L4,20c0,1.1,0.89,2,1.99,2H18c1.1,0,2-0.9,2-2V8L14,2z M15,12h-4v1h3c0.55,0,1,0.45,1,1v3 c0,0.55-0.45,1-1,1h-1v1h-2v-1H9v-2h4v-1h-3c-0.55,0-1-0.45-1-1v-3c0-0.55,0.45-1,1-1h1V9h2v1h2V12z M13,8V3.5L17.5,8H13z" />
    </g>
  </symbol>

  <symbol id="collections" viewBox="0 0 24 24">
    <path d="M0 0h24v24H0V0z" fill="none" />
    <path d="M0 0h24v24H0V0z" fill="none" />
    <path d="M4 6H2v14c0 1.1.9 2 2 2h14v-2H4V6z" />
    <path
      d="M20 2H8c-1.1 0-2 .9-2 2v12c0 1.1.9 2 2 2h12c1.1 0 2-.9 2-2V4c0-1.1-.9-2-2-2zm0 10l-2.5-1.5L15 12V4h5v8z" />
  </symbol>

  <symbol id="tasks" viewBox="0 0 24 24">
    <rect fill="none" height="24" width="24" />
    <path
      d="M22,5.18L10.59,16.6l-4.24-4.24l1.41-1.41l2.83,2.83l10-10L22,5.18z M19.79,10.22C19.92,10.79,20,11.39,20,12 c0,4.42-3.58,8-8,8s-8-3.58-8-8c0-4.42,3.58-8,8-8c1.58,0,3.04,0.46,4.28,1.25l1.44-1.44C16.1,2.67,14.13,2,12,2C6.48,2,2,6.48,2,12 c0,5.52,4.48,10,10,10s10-4.48,10-10c0-1.19-0.22-2.33-0.6-3.39L19.79,10.22z" />
  </symbol>

  <symbol id="flag" viewBox="0 0 24 24">
    <path d="M0 0h24v24H0z" fill="none" />
    <path d="M14.4 6L14 4H5v17h2v-7h5.6l.4 2h7V6z" />
  </symbol>

  <symbol id="zoom-in" viewBox="0 0 24 24">
    <path d="M0 0h24v24H0V0z" fill="none" />
    <path
      d="M15.5 14h-.79l-.28-.27C15.41 12.59 16 11.11 16 9.5 16 5.91 13.09 3 9.5 3S3 5.91 3 9.5 5.91 16 9.5 16c1.61 0 3.09-.59 4.23-1.57l.27.28v.79l5 4.99L20.49 19l-4.99-5zm-6 0C7.01 14 5 11.99 5 9.5S7.01 5 9.5 5 14 7.01 14 9.5 11.99 14 9.5 14z" />
    <path d="M12 10h-2v2H9v-2H7V9h2V7h1v2h2v1z" />
  </symbol>

  <symbol id="zoom-out" viewBox="0 0 24 24">
    <path d="M0 0h24v24H0V0z" fill="none" />
    <path
      d="M15.5 14h-.79l-.28-.27C15.41 12.59 16 11.11 16 9.5 16 5.91 13.09 3 9.5 3S3 5.91 3 9.5 5.91 16 9.5 16c1.61 0 3.09-.59 4.23-1.57l.27.28v.79l5 4.99L20.49 19l-4.99-5zm-6 0C7.01 14 5 11.99 5 9.5S7.01 5 9.5 5 14 7.01 14 9.5 11.99 14 9.5 14zM7 9h5v1H7z" />
  </symbol>

  <symbol id="schedule" viewBox="0 0 24 24">
    <path d="M0 0h24v24H0z" fill="none" />
    <path
      d="M11.99 2C6.47 2 2 6.48 2 12s4.47 10 9.99 10C17.52 22 22 17.52 22 12S17.52 2 11.99 2zM12 20c-4.42 0-8-3.58-8-8s3.58-8 8-8 8 3.58 8 8-3.58 8-8 8z" />
    <path d="M12.5 7H11v6l5.25 3.15.75-1.23-4.5-2.67z" />
  </symbol>

  <symbol id="unfold" viewBox="0 0 24 24">
    <g>
      <rect fill="none" height="24" width="24" />
    </g>
    <g>
      <g>
        <polygon points="18,6.41 16.59,5 12,9.58 7.41,5 6,6.41 12,12.41" />
        <polygon points="18,13 16.59,11.59 12,16.17 7.41,11.59 6,13 12,19" />
      </g>
    </g>
  </symbol>

  <symbol id="hammer" viewBox="0 0 24 24">
    <g>
      <rect fill="none" height="24" width="24" />
    </g>
    <g>
      <g>
        <g>
          <path d="M18,3l-3,3V3H9C6.24,3,4,5.24,4,8h5v3h6V8l3,3h2V3H18z" />
        </g>
        <g>
          <path d="M9,13v7c0,0.55,0.45,1,1,1h4c0.55,0,1-0.45,1-1v-7H9z" />
        </g>
      </g>
    </g>
  </symbol>

  <symbol id="filter" viewBox="0 0 24 24">
    <g>
      <path d="M0,0h24 M24,24H0" fill="none" />
      <path
        d="M4.25,5.61C6.27,8.2,10,13,10,13v6c0,0.55,0.45,1,1,1h2c0.55,0,1-0.45,1-1v-6c0,0,3.72-4.8,5.74-7.39 C20.25,4.95,19.78,4,18.95,4H5.04C4.21,4,3.74,4.95,4.25,5.61z" />
      <path d="M0,0h24v24H0V0z" fill="none" />
    </g>
  </symbol>

  <symbol id="freeze" viewBox="0 0 24 24">
    <path d="M0 0h24v24H0z" fill="none" />
    <path
      d="M22 11h-4.17l3.24-3.24-1.41-1.42L15 11h-2V9l4.66-4.66-1.42-1.41L13 6.17V2h-2v4.17L7.76 2.93 6.34 4.34 11 9v2H9L4.34 6.34 2.93 7.76 6.17 11H2v2h4.17l-3.24 3.24 1.41 1.42L9 13h2v2l-4.66 4.66 1.42 1.41L11 17.83V22h2v-4.17l3.24 3.24 1.42-1.41L13 15v-2h2l4.66 4.66 1.41-1.42L17.83 13H22z" />
  </symbol>

  <symbol id="flame" viewBox="0 0 24 24">
    <g>
      <rect fill="none" height="24" width="24" />
    </g>
    <g>
      <g>
        <g>
          <path
            d="M12,12.9l-2.13,2.09C9.31,15.55,9,16.28,9,17.06C9,18.68,10.35,20,12,20s3-1.32,3-2.94c0-0.78-0.31-1.52-0.87-2.07 L12,12.9z" />
        </g>
        <g>
          <path
            d="M16,6l-0.44,0.55C14.38,8.02,12,7.19,12,5.3V2c0,0-8,4-8,11c0,2.92,1.56,5.47,3.89,6.86C7.33,19.07,7,18.1,7,17.06 c0-1.32,0.52-2.56,1.47-3.5L12,10.1l3.53,3.47c0.95,0.93,1.47,2.17,1.47,3.5c0,1.02-0.31,1.96-0.85,2.75 c1.89-1.15,3.29-3.06,3.71-5.3C20.52,10.97,18.79,7.62,16,6z" />
        </g>
      </g>
    </g>
  </symbol>

  <symbol id="receipt" viewBox="0 0 24 24">
    <path d="M0 0h24v24H0z" fill="none" />
    <path
      d="M18 17H6v-2h12v2zm0-4H6v-2h12v2zm0-4H6V7h12v2zM3 22l1.5-1.5L6 22l1.5-1.5L9 22l1.5-1.5L12 22l1.5-1.5L15 22l1.5-1.5L18 22l1.5-1.5L21 22V2l-1.5 1.5L18 2l-1.5 1.5L15 2l-1.5 1.5L12 2l-1.5 1.5L9 2 7.5 3.5 6 2 4.5 3.5 3 2v20z" />
    <path d="M0 0h24v24H0z" fill="none" />
    <path
      d="M18 17H6v-2h12v2zm0-4H6v-2h12v2zm0-4H6V7h12v2zM3 22l1.5-1.5L6 22l1.5-1.5L9 22l1.5-1.5L12 22l1.5-1.5L15 22l1.5-1.5L18 22l1.5-1.5L21 22V2l-1.5 1.5L18 2l-1.5 1.5L15 2l-1.5 1.5L12 2l-1.5 1.5L9 2 7.5 3.5 6 2 4.5 3.5 3 2v20z" />
  </symbol>

  <symbol id="book" viewBox="0 0 24 24">
    <path d="M0 0h24v24H0z" fill="none" />
    <path
      d="M18 2H6c-1.1 0-2 .9-2 2v16c0 1.1.9 2 2 2h12c1.1 0 2-.9 2-2V4c0-1.1-.9-2-2-2zM6 4h5v8l-2.5-1.5L6 12V4z" />
  </symbol>

  <symbol id="undo" viewBox="0 0 24 24">
    <path d="M0 0h24v24H0z" fill="none" />
    <path
      d="M12.5 8c-2.65 0-5.05.99-6.9 2.6L2 7v9h9l-3.62-3.62c1.39-1.16 3.16-1.88 5.12-1.88 3.54 0 6.55 2.31 7.6 5.5l2.37-.78C21.08 11.03 17.15 8 12.5 8z" />
  </symbol>

  <symbol id="redo" viewBox="0 0 24 24">
    <path d="M0 0h24v24H0z" fill="none" />
    <path
      d="M18.4 10.6C16.55 8.99 14.15 8 11.5 8c-4.65 0-8.58 3.03-9.96 7.22L3.9 16c1.05-3.19 4.05-5.5 7.6-5.5 1.95 0 3.73.72 5.12 1.88L13 16h9V7l-3.6 3.6z" />
  </symbol>

  <symbol id="paragraph" viewBox="0 -960 960 960">
    <path
      d="M160-200v-80h400v80H160Zm0-160v-80h640v80H160Zm0-160v-80h640v80H160Zm0-160v-80h640v80H160Z" />
  </symbol>

  <symbol id="align-center" viewBox="0 -960 960 960">
    <path
      d="M120-120v-80h720v80H120Zm160-160v-80h400v80H280ZM120-440v-80h720v80H120Zm160-160v-80h400v80H280ZM120-760v-80h720v80H120Z" />
  </symbol>

  <symbol id="align-left" viewBox="0 -960 960 960">
    <path
      d="M120-120v-80h720v80H120Zm0-160v-80h480v80H120Zm0-160v-80h720v80H120Zm0-160v-80h480v80H120Zm0-160v-80h720v80H120Z" />
  </symbol>

  <symbol id="align-right" viewBox="0 -960 960 960">
    <path
      d="M120-760v-80h720v80H120Zm240 160v-80h480v80H360ZM120-440v-80h720v80H120Zm240 160v-80h480v80H360ZM120-120v-80h720v80H120Z" />
  </symbol>

  <symbol id="align-justify" viewBox="0 -960 960 960">
    <path
      d="M120-120v-80h720v80H120Zm0-160v-80h720v80H120Zm0-160v-80h720v80H120Zm0-160v-80h720v80H120Zm0-160v-80h720v80H120Z" />
  </symbol>

  <symbol id="bold" viewBox="0 -960 960 960">
    <path
      d="M272-200v-560h221q65 0 120 40t55 111q0 51-23 78.5T602-491q25 11 55.5 41t30.5 90q0 89-65 124.5T501-200H272Zm121-112h104q48 0 58.5-24.5T566-372q0-11-10.5-35.5T494-432H393v120Zm0-228h93q33 0 48-17t15-38q0-24-17-39t-44-15h-95v109Z" />
  </symbol>

  <symbol id="italic" viewBox="0 -960 960 960">
    <path d="M200-200v-100h160l120-360H320v-100h400v100H580L460-300h140v100H200Z" />
  </symbol>

  <symbol id="underline" viewBox="0 -960 960 960">
    <path
      d="M200-120v-80h560v80H200Zm280-160q-101 0-157-63t-56-167v-330h103v336q0 56 28 91t82 35q54 0 82-35t28-91v-336h103v330q0 104-56 167t-157 63Z" />
  </symbol>

  <symbol id="strikethrough" viewBox="0 -960 960 960">
    <path
      d="M486-160q-76 0-135-45t-85-123l88-38q14 48 48.5 79t85.5 31q42 0 76-20t34-64q0-18-7-33t-19-27h112q5 14 7.5 28.5T694-340q0 86-61.5 133T486-160ZM80-480v-80h800v80H80Zm402-326q66 0 115.5 32.5T674-674l-88 39q-9-29-33.5-52T484-710q-41 0-68 18.5T386-640h-96q2-69 54.5-117.5T482-806Z" />
  </symbol>

  <symbol id="format-code" viewBox="0 -960 960 960">
    <path
      d="M320-240 80-480l240-240 57 57-184 184 183 183-56 56Zm320 0-57-57 184-184-183-183 56-56 240 240-240 240Z" />
  </symbol>

  <symbol id="link" viewBox="0 -960 960 960">
    <path
      d="M440-280H280q-83 0-141.5-58.5T80-480q0-83 58.5-141.5T280-680h160v80H280q-50 0-85 35t-35 85q0 50 35 85t85 35h160v80ZM320-440v-80h320v80H320Zm200 160v-80h160q50 0 85-35t35-85q0-50-35-85t-85-35H520v-80h160q83 0 141.5 58.5T880-480q0 83-58.5 141.5T680-280H520Z" />
  </symbol>

  <symbol id="ol" viewBox="0 0 24 24">
    <path d="M0 0h24v24H0z" fill="none" />
    <path
      d="M2 17h2v.5H3v1h1v.5H2v1h3v-4H2v1zm1-9h1V4H2v1h1v3zm-1 3h1.8L2 13.1v.9h3v-1H3.2L5 10.9V10H2v1zm5-6v2h14V5H7zm0 14h14v-2H7v2zm0-6h14v-2H7v2z" />
  </symbol>

  <symbol id="ul" viewBox="0 0 24 24">
    <path d="M0 0h24v24H0V0z" fill="none" />
    <path
      d="M4 10.5c-.83 0-1.5.67-1.5 1.5s.67 1.5 1.5 1.5 1.5-.67 1.5-1.5-.67-1.5-1.5-1.5zm0-6c-.83 0-1.5.67-1.5 1.5S3.17 7.5 4 7.5 5.5 6.83 5.5 6 4.83 4.5 4 4.5zm0 12c-.83 0-1.5.68-1.5 1.5s.68 1.5 1.5 1.5 1.5-.68 1.5-1.5-.67-1.5-1.5-1.5zM7 19h14v-2H7v2zm0-6h14v-2H7v2zm0-8v2h14V5H7z" />
  </symbol>

  <symbol id="quote" viewBox="0 0 24 24">
    <path d="M0 0h24v24H0z" fill="none" />
    <path d="M6 17h3l2-4V7H5v6h3zm8 0h3l2-4V7h-6v6h3z" />
  </symbol>

  <symbol id="h1" viewBox="0 -960 960 960">
    <path
      d="M 502.7274,-203.77475 H 400.21547 v -247.9936 H 208.09046 v 247.9936 H 105.57853 V -778.669 h 102.51193 v 225.44873 H 400.21547 V -778.669 H 502.7274 Z m 303.53046,0 H 703.74593 v -332.53688 q 0,-20.93452 0.67889,-54.75183 1.35776,-33.8173 2.03665,-59.58287 -3.39443,4.83104 -14.93551,17.71383 -10.86219,12.07761 -20.36661,21.7397 l -55.66873,53.14148 -49.55875,-73.27084 156.144,-147.34684 h 84.18199 z" />
  </symbol>

  <symbol id="h2" viewBox="0 -960 960 960">
    <path
      d="M 502.87415,-203.77475 H 400.36222 v -247.9936 H 208.23721 v 247.9936 H 105.72528 V -778.669 h 102.51193 v 225.44873 H 400.36222 V -778.669 h 102.51193 z m 389.07021,0 H 553.17977 v -84.54328 l 121.52076,-145.73649 q 36.65989,-45.08975 59.06317,-74.88118 22.40327,-30.59661 32.58657,-54.75184 10.18331,-24.96039 10.18331,-53.14148 0,-34.62248 -16.29329,-51.53114 -15.61441,-16.90866 -42.76987,-16.90866 -27.83437,0 -54.31096,15.29831 -26.47659,15.29831 -55.66874,43.4794 l -55.66873,-78.10188 q 21.0455,-21.7397 44.12766,-40.2587 23.76104,-18.519 54.31096,-29.79144 31.22879,-12.07761 74.67755,-12.07761 47.52209,0 81.46644,20.93452 34.62324,20.12936 52.95318,55.55701 19.00884,34.62248 19.00884,78.90705 0,47.50527 -16.29329,86.95879 -15.6144,39.45353 -46.16431,78.10189 -29.87103,38.64835 -72.6409,85.34845 l -62.4576,69.24496 v 5.63621 h 211.13384 z" />
  </symbol>

  <symbol id="h3" viewBox="0 -960 960 960">
    <path
      d="M 502.87415,-203.77475 H 400.36222 v -247.9936 H 208.23721 v 247.9936 H 105.72528 V -778.669 h 102.51193 v 225.44873 H 400.36222 V -778.669 h 102.51193 z m 370.06137,-446.0664 q 0,59.58287 -30.54991,95.01053 -29.87103,35.42765 -73.99868,48.31044 v 2.41552 q 58.38428,8.05174 88.25531,41.86905 30.54991,33.81731 30.54991,90.98467 0,49.92078 -21.0455,90.17948 -20.36661,39.45353 -63.81537,62.80357 -42.76988,22.54488 -110.65858,22.54488 -78.75088,0 -139.85071,-31.40178 v -103.06228 q 31.22881,18.519 65.17315,28.18109 34.62323,9.66209 63.81538,9.66209 54.98984,0 76.71423,-22.54487 22.40326,-22.54488 22.40326,-63.60875 0,-24.15522 -10.1833,-40.2587 -10.18331,-16.90866 -35.98101,-24.9604 -25.11882,-8.85691 -70.60424,-8.85691 h -36.6599 v -93.40019 h 37.33878 q 44.80654,0 67.88869,-9.66209 23.76105,-10.46726 31.9077,-27.37592 8.82552,-17.71383 8.82552,-40.2587 0,-30.59661 -16.29328,-47.50527 -15.6144,-17.71382 -52.95318,-17.71382 -34.62324,0 -60.42094,14.49313 -25.11883,13.68796 -42.76988,27.37592 l -47.52209,-83.7381 q 28.51325,-24.15522 66.53092,-40.2587 38.69655,-16.10348 91.64975,-16.10348 74.67755,0 118.12632,36.23283 44.12765,35.42766 44.12765,100.64676 z" />
  </symbol>

  <symbol id="color-fill" viewBox="0 0 24 24">
    <g>
      <rect fill="none" height="24" width="24" />
    </g>
    <g>
      <path
        d="M16.56,8.94L7.62,0L6.21,1.41l2.38,2.38L3.44,8.94c-0.59,0.59-0.59,1.54,0,2.12l5.5,5.5C9.23,16.85,9.62,17,10,17 s0.77-0.15,1.06-0.44l5.5-5.5C17.15,10.48,17.15,9.53,16.56,8.94z M5.21,10L10,5.21L14.79,10H5.21z M19,11.5c0,0-2,2.17-2,3.5 c0,1.1,0.9,2,2,2s2-0.9,2-2C21,13.67,19,11.5,19,11.5z M2,20h20v4H2V20z" />
    </g>
  </symbol>

  <symbol id="color-text" viewBox="0 0 24 24">
    <g>
      <rect fill="none" height="24" width="24" />
    </g>
    <g>
      <path
        d="M2,20h20v4H2V20z M5.49,17h2.42l1.27-3.58h5.65L16.09,17h2.42L13.25,3h-2.5L5.49,17z M9.91,11.39l2.03-5.79h0.12l2.03,5.79 H9.91z" />
    </g>
  </symbol>

  <symbol id="movie" viewBox="0 0 24 24">
    <path d="M0 0h24v24H0z" fill="none" />
    <path
      d="M18 4l2 4h-3l-2-4h-2l2 4h-3l-2-4H8l2 4H7L5 4H4c-1.1 0-1.99.9-1.99 2L2 18c0 1.1.9 2 2 2h16c1.1 0 2-.9 2-2V4h-4z" />
  </symbol>

  <symbol id="table" viewBox="0 0 24 24">
    <path d="M0 0h24v24H0V0z" fill="none" />
    <path
      d="M10 10.02h5V21h-5zM17 21h3c1.1 0 2-.9 2-2v-9h-5v11zm3-18H5c-1.1 0-2 .9-2 2v3h19V5c0-1.1-.9-2-2-2zM3 19c0 1.1.9 2 2 2h3V10H3v9z" />
  </symbol>

  <symbol id="image" viewBox="0 0 24 24">
    <path d="M0 0h24v24H0z" fill="none" />
    <path
      d="M21 19V5c0-1.1-.9-2-2-2H5c-1.1 0-2 .9-2 2v14c0 1.1.9 2 2 2h14c1.1 0 2-.9 2-2zM8.5 13.5l2.5 3.01L14.5 12l4.5 6H5l3.5-4.5z" />
  </symbol>

  <symbol id="bulk-add" viewBox="0 0 24 24">
    <path d="M0 0h24v24H0z" fill="none" />
    <path
      d="M4 6H2v14c0 1.1.9 2 2 2h14v-2H4V6zm16-4H8c-1.1 0-2 .9-2 2v12c0 1.1.9 2 2 2h12c1.1 0 2-.9 2-2V4c0-1.1-.9-2-2-2zm-1 9h-4v4h-2v-4H9V9h4V5h2v4h4v2z" />
  </symbol>

  <symbol id="send" viewBox="0 0 24 24">
    <path d="M0 0h24v24H0z" fill="none" />
    <path d="M2.01 21L23 12 2.01 3 2 10l15 2-15 2z" />
  </symbol>

  <symbol id="fullscreen" viewBox="0 0 24 24">
    <path d="M0 0h24v24H0z" fill="none" />
    <path d="M7 14H5v5h5v-2H7v-3zm-2-4h2V7h3V5H5v5zm12 7h-3v2h5v-5h-2v3zM14 5v2h3v3h2V5h-5z" />
  </symbol>

  <symbol id="external" viewBox="0 0 24 24">
    <path d="M0 0h24v24H0z" fill="none" />
    <path
      d="M19 19H5V5h7V3H5c-1.11 0-2 .9-2 2v14c0 1.1.89 2 2 2h14c1.1 0 2-.9 2-2v-7h-2v7zM14 3v2h3.59l-9.83 9.83 1.41 1.41L19 6.41V10h2V3h-7z" />
  </symbol>

  <symbol id="comments" viewBox="0 0 24 24">
    <path d="M0 0h24v24H0z" fill="none" />
    <path
      d="M21 6h-2v9H6v2c0 .55.45 1 1 1h11l4 4V7c0-.55-.45-1-1-1zm-4 6V3c0-.55-.45-1-1-1H3c-.55 0-1 .45-1 1v14l4-4h10c.55 0 1-.45 1-1z" />
  </symbol>

  <symbol id="users" viewBox="0 0 24 24">
    <path d="M0 0h24v24H0z" fill="none" />
    <path
      d="M16 11c1.66 0 2.99-1.34 2.99-3S17.66 5 16 5c-1.66 0-3 1.34-3 3s1.34 3 3 3zm-8 0c1.66 0 2.99-1.34 2.99-3S9.66 5 8 5C6.34 5 5 6.34 5 8s1.34 3 3 3zm0 2c-2.33 0-7 1.17-7 3.5V19h14v-2.5c0-2.33-4.67-3.5-7-3.5zm8 0c-.29 0-.62.02-.97.05 1.16.84 1.97 1.97 1.97 3.45V19h6v-2.5c0-2.33-4.67-3.5-7-3.5z" />
  </symbol>

  <symbol id="category" viewBox="0 0 24 24">
    <path d="M0 0h24v24H0z" fill="none" />
    <path d="M12 2l-5.5 9h11z" />
    <circle cx="17.5" cy="17.5" r="4.5" />
    <path d="M3 13.5h8v8H3z" />
  </symbol>

  <symbol id="play" viewBox="0 0 24 24">
    <path d="M0 0h24v24H0z" fill="none" />
    <path d="M8 5v14l11-7z" />
  </symbol>

  <symbol id="pause" viewBox="0 0 24 24">
    <path d="M0 0h24v24H0z" fill="none" />
    <path d="M6 19h4V5H6v14zm8-14v14h4V5h-4z" />
  </symbol>

  <symbol id="pin" viewBox="0 0 24 24">
    <g>
      <rect fill="none" height="24" width="24" />
    </g>
    <g>
      <path
        d="M16,9V4l1,0c0.55,0,1-0.45,1-1v0c0-0.55-0.45-1-1-1H7C6.45,2,6,2.45,6,3v0 c0,0.55,0.45,1,1,1l1,0v5c0,1.66-1.34,3-3,3h0v2h5.97v7l1,1l1-1v-7H19v-2h0C17.34,12,16,10.66,16,9z"
        fill-rule="evenodd" />
    </g>
  </symbol>

  <symbol id="hourglass-bottom" viewBox="0 0 24 24">
    <g>
      <rect fill="none" height="24" width="24" />
    </g>
    <g>
      <path
        d="M18,22l-0.01-6L14,12l3.99-4.01L18,2H6v6l4,4l-4,3.99V22H18z M8,7.5V4h8v3.5l-4,4L8,7.5z" />
    </g>
  </symbol>

  <symbol id="hourglass-top" viewBox="0 0 24 24">
    <g>
      <rect fill="none" height="24" width="24" />
    </g>
    <g>
      <path
        d="M6,2l0.01,6L10,12l-3.99,4.01L6,22h12v-6l-4-4l4-3.99V2H6z M16,16.5V20H8v-3.5l4-4L16,16.5z" />
    </g>
  </symbol>

  <symbol id="bed" viewBox="0 0 24 24">
    <path d="M0 0h24v24H0z" fill="none" />
    <path
      d="M7 13c1.66 0 3-1.34 3-3S8.66 7 7 7s-3 1.34-3 3 1.34 3 3 3zm12-6h-8v7H3V5H1v15h2v-3h18v3h2v-9c0-2.21-1.79-4-4-4z" />
  </symbol>

  <symbol id="exclamation-mark" viewBox="0 0 24 24">
    <path d="M0 0h24v24H0z" fill="none" />
    <circle cx="12" cy="19" r="2" />
    <path d="M10 3h4v12h-4z" />
  </symbol>

  <symbol id="repeat" viewBox="0 0 24 24">
    <path d="M0 0h24v24H0z" fill="none" />
    <path d="M7 7h10v3l4-4-4-4v3H5v6h2V7zm10 10H7v-3l-4 4 4 4v-3h12v-6h-2v4z" />
  </symbol>

  <symbol id="attachment" viewBox="0 0 24 24">
    <path d="M0 0h24v24H0V0z" fill="none" />
    <path
      d="M2 12.5C2 9.46 4.46 7 7.5 7H18c2.21 0 4 1.79 4 4s-1.79 4-4 4H9.5C8.12 15 7 13.88 7 12.5S8.12 10 9.5 10H17v2H9.41c-.55 0-.55 1 0 1H18c1.1 0 2-.9 2-2s-.9-2-2-2H7.5C5.57 9 4 10.57 4 12.5S5.57 16 7.5 16H17v2H7.5C4.46 18 2 15.54 2 12.5z" />
  </symbol>
</svg>

