<?xml version="1.0" encoding="UTF-8"?>
<!-- Created with Inkscape (http://www.inkscape.org/) -->
<svg width="606.41" height="174.66" version="1.1" viewBox="0 0 160.45 46.213" xmlns="http://www.w3.org/2000/svg" xmlns:cc="http://creativecommons.org/ns#" xmlns:dc="http://purl.org/dc/elements/1.1/" xmlns:rdf="http://www.w3.org/1999/02/22-rdf-syntax-ns#">
 <metadata>
  <rdf:RDF>
   <cc:Work rdf:about="">
    <dc:format>image/svg+xml</dc:format>
    <dc:type rdf:resource="http://purl.org/dc/dcmitype/StillImage"/>
    <dc:title/>
   </cc:Work>
  </rdf:RDF>
 </metadata>
 <g transform="translate(-18.051 -61.471)">
  <g transform="matrix(.38756 0 0 .38756 66.284 151.6)">
   <path d="m-108.87-205.57s-10.265 55.726-15.406 83.993c-0.60673 3.3364 0.41392 3.8876 1.9265 4.0191 4.9336 0.4287 9.2137-0.25133 13.795-0.69802 0.88329-0.0862 1.6376-0.28661 1.7798-1.5883 1.0848-9.9291 10.036-42.299 9.8677-61.095 0 0 10.947 39.552 11.49 56.474 0.05031 1.5654 1.2174 1.6439 2.1289 1.6729 6.7183 0.21381 11.006 0.45711 15.67-0.22898 0.80177-0.11795 1.7472-0.31046 1.9282-1.4439 2.6327-16.489 13.202-65.165 17.78-85.509 0.30094-1.3373 0.90384-2.2734-0.42697-2.7157-1.3349-0.44368-9.6606-1.7004-12.537-2.02-1.478-0.16423-1.7386 1.9115-1.9682 2.7265-1.4808 5.2575-9.6962 42.053-13.342 60.733-0.81576-12.49-10.078-50.015-10.34-51.271-0.27068-1.2989-0.54225-2.4685-2.9804-2.7186-2.5295-0.2594-16.574-1.4586-17.588-1.3043-1.0936 0.16635-1.7783 0.97309-1.7783 0.97309z"/>
   <path d="m-22.895-189.78s1.5079 24.601-0.50758 46.235c-4.2198-0.38145-9.4435-0.2691-14.385 0.22875 4.192-18.828 14.892-46.464 14.892-46.464zm-5.8955-20.503c-8.5259 21.991-21.396 61.131-30.907 89.997-0.73141 2.2197 0.39276 2.4293 1.3586 2.4443 3.7593 0.0582 6.6599 0.0652 9.984 0.28838 2.3186 0.15566 2.7234-0.37171 2.98-1.5896 0.84333-4.0033 3.1217-11.533 3.1217-11.533 5.5527-0.6987 12.566-0.91462 18.965-0.34551 0 0-0.31166 5.7074-1.0869 11.114-0.24424 1.7034 0.04447 2.0993 0.81514 2.0915 6.9155-0.0695 10.62-0.0478 13.767-0.63077 1.4017-0.25962 1.6911-0.62067 1.7171-1.3091 1.3662-36.275 0.3144-59.636-1.4906-89.008-0.10066-1.638-0.7606-3.0272-2.304-3.1799-6.4498-0.63812-8.0038-0.8262-13.592-0.37216-1.7945 0.14582-2.8624 0.83175-3.3285 2.0338z"/>
   <path d="m11.256-214.05c-4.3556 23.006-7.3803 36.554-11.342 66.035-1.4462 10.762-1.83 18.641 3.0402 24.691 4.0124 4.9846 8.6845 5.53 13.686 6.0666 7.795 0.83631 14.233-0.20899 20.44-8.152 7.4742-9.5646 8.3991-19.547 10.708-30.199 4.0112-18.503 5.0682-40.339 7.5257-53.231 0.47569-2.4955 0.28224-4.5102-1.18-4.5641-3.1472-0.11592-6.5664 0.26271-10.62-0.0662-0.88959-0.0722-2.472 0.81763-2.6376 1.6536-3.1983 16.139-6.4222 47.969-11.968 69.437-1.5059 5.8291-2.9485 9.6545-6.4385 11.149-2.5675 1.0992-5.2938 0.4455-7.4249-1.3069-2.2823-1.8768-2.5902-5.5996-2.36-8.5328 0.69413-8.8453 2.7531-18.387 3.887-26.194 2.2429-15.441 6.1074-29.791 9.8123-45.631 0.24535-1.049 0.12372-2.7761-1.2747-2.9865-2.8511-0.42904-8.2841-0.0341-11.151 0.19885-1.8285 0.14861-2.7035 0.91802-2.7035 1.6319z"/>
   <path d="m81.439-213.46c-10.047 1.575-14.426 5.2852-17.216 12.615-3.2859 8.6332 4.5188 24.47 6.6507 32.337 2.7931 10.306 6.082 20.834 5.1206 31.468-0.25433 2.8131-0.6317 5.801-3.341 6.5999-3.524 1.0391-5.3938 0.57151-7.2551-1.1303-2.6322-2.4068-3.1023-7.9523-4.39-11.142-0.43903-1.0876-1.9319-2.057-3.0601-1.7366-2.6545 0.7537-5.5463 2.6013-7.6205 4.5582-1.1707 1.1045-1.5085 1.9239-1.3667 3.2964 0.72323 6.9998 3.5117 15.613 9.1041 19.884 4.521 3.4532 11.486 4.2479 16.888 2.4639 5.6419-1.8632 10.526-5.0411 12.843-10.512 4.1766-9.8602 0.50825-23.963-1.0186-34.562-1.5617-10.84-4.7258-17.485-7.3452-28.119-1.9377-7.8667-2.2611-11.121 1.7694-12.67 4.483-1.7232 6.8428 2.0202 8.2147 5.261 1.4167 3.3466 1.3955 6.5157 2.5858 8.6369 0.57396 1.0228 0.91129 1.3871 2.5981 0.98812 2.166-0.5123 5.1512-2.6264 7.9724-4.7806 1.9332-1.4761 1.5741-2.2217 0.38015-7.2283-2.0908-8.7674-6.9252-18.515-21.514-16.228z"/>
   <path d="m118.47-204.42c-5.3264-0.5086-8.7475-3.7747-8.4667-9.2604 0.3678-7.1835 5.2435-9.1255 11.01-8.3614 4.9346 0.65394 9.3995 3.1143 7.7757 10.213-1.232 5.3863-5.1119 7.9055-10.319 7.4083zm-10.16 20.102c-3.9651 20.391-6.7934 37.219-10.413 64.38-0.0915 0.68657 0.57645 1.5082 1.2505 1.6678 4.0563 0.96041 6.3055 1.3219 10.755 0.8978 0.71834-0.0685 1.3365-0.91009 1.4295-1.6257 3.0802-23.698 6.596-43.397 10.81-64.861 0.10865-0.55335-0.19765-1.4431-0.75724-1.5128-3.2309-0.40244-7.335-0.24065-11.1-0.26331-0.79105-5e-3 -1.8235 0.54004-1.9745 1.3166z"/>
   <path d="m137.17-215.77c-3.3182 24.234-10.414 58.167-13.628 86.953-0.0954 0.85499 0.61342 1.9768 1.4603 2.128 4.7434 0.84711 9.6758 0.24106 11.997 0.19867 0.88918-0.0162 2.0964-0.61905 2.2052-1.5017 0.76441-6.2018 2.9856-25.057 2.9856-25.057l4.0783-5.0407s9.9054 24.096 15.853 41.558c0.70461 2.0685 2.7328 2.1741 3.8198 1.8396 4.3527-1.3393 7.2673-2.5798 11.471-4.6347 0.6465-0.31605 1.2232-1.2595 0.96497-1.9312-5.3262-13.851-20.532-50.236-20.532-50.236s19.022-25.201 28.378-36.933c0.67115-0.84157 0.70808-1.9463-0.59588-3.0852-2.4998-2.1833-5.5492-5.4786-8.3593-7.8468-0.73429-0.6188-2.3446-0.64235-2.8765 0.15715-5.5317 8.315-27.194 37.754-27.194 37.754s3.7302-23.469 5.7608-32.986c0.30681-1.438-0.39491-2.2538-1.2713-2.3068-3.6901-0.22324-7.9876-0.85923-11.874-0.85931-1.6524-4e-5 -2.4585 0.48354-2.6428 1.8295z"/>
   <path d="m205.47-220.27c-1.9337-0.0127-2.4968 1.4017-3.0298 2.6277-4.397 10.115-14.096 48.575-22.587 89.897-0.22935 1.128 0.0385 3.0471 0.88468 3.3424 4.275 1.4921 6.5196 1.3656 11.28 1.8045 1.2705 0.11714 2.0965-0.43678 2.1704-1.2723 0.35391-4.0027 2.0081-12.041 2.0081-12.041l19.337-1.2185s0.82076 7.6688 1.4196 11.477c0.23759 1.5109 0.88347 2.4068 2.4593 2.3864 3.395-0.044 7.2172-0.0435 9.6454-0.50075 1.2932-0.24351 2.136-0.98561 2.0417-1.9136-2.6056-25.64-8.0463-77.112-9.2346-90.167-0.12867-1.4137-0.81307-3.4454-2.22-3.6339-3.953-0.52955-9.6974-0.75875-14.175-0.78806zm4.2375 23.534s4.1541 26.596 5.565 47.651l-16.868 1.4614c3.039-21.164 11.303-49.113 11.303-49.113z"/>
   <path d="m278.14-232.56c-4.5326-0.0465-7.6547 2.5841-7.9812 7.3803-0.26444 3.8848 2.4228 8.5078 7.8144 8.6827 5.9126 0.19181 8.794-4.2581 8.6827-8.2486-0.14027-5.029-4.6635-7.7749-8.516-7.8144zm-26.548 0.16043c5.8921-0.26201 8.6246 3.6232 8.6764 7.4306 0.0764 5.6186-5.0697 7.8087-8.8998 7.3803-3.5381-0.39573-7.17-2.9381-6.512-8.4656 0.36461-3.0629 1.9969-6.1346 6.7354-6.3453zm2.4887 23.119c-7.7792 27.042-13.974 53.3-18.732 75.217-0.28393 1.3078 0.87586 3.0036 2.1586 3.3853 3.4434 1.0246 6.0816 1.2408 10.39 1.024 1.1431-0.0575 2.5602-0.92604 2.751-2.0545 0.60895-3.6029 1.6954-8.1103 1.6954-8.1103l18.54-0.21704s1.2148 10.515 2.4252 18.06c0.45508 2.837 0.99703 4.2401 2.8476 4.4391 3.7735 0.4058 7.0603 0.0746 11.797-1.1367 1.4082-0.36011 1.894-1.0406 1.3797-4.1364-4.1913-25.23-9.2828-57.136-13.928-85.841-0.27169-1.6789-1.8381-3.513-3.5303-3.6838-4.3386-0.43766-8.9064-0.30619-14.112 0.17856-1.5506 0.14438-3.2518 1.3788-3.6823 2.8754zm11.07 16.063s2.864 23.634 4.7754 42.111l-15.21 0.52402c4.0618-21.663 10.435-42.635 10.435-42.635z"/>
  </g>
 </g>
</svg>
