<svg width="195.28mm" height="233.73mm" version="1.1" viewBox="0 0 195.28 233.73" xmlns="http://www.w3.org/2000/svg" xmlns:xlink="http://www.w3.org/1999/xlink">
 <defs>
  <symbol id="house-01" viewBox="-2 -2 30.511 108.352">
   <title>House 01</title>
   <g id="house-01_transform" class="building house" transform="matrix(.6053 0 0 .6053 244.17 -55.162)">
    <path class="outline" d="m-402.89 112.34 7.3724-11.246 24.647-9.3435 10.78 18.326v138.77l-25.424 14.105-17.168-10.672z"/>
    <path class="west" d="m-385.31 121.55-0.207 141.4-17.168-10.672-0.207-139.94 7.3724-11.246z"/>
    <path class="east" d="m-385.52 262.95 25.424-14.105v-138.77l-25.217 11.476z"/>
    <path class="east top" d="m-370.87 91.749 10.78 18.326-25.217 11.476-10.21-20.458z"/>
   </g>
  </symbol>
  <symbol id="house-02" viewBox="-2 -2 30.286 107.792">
   <title>House 02</title>
   <g id="house-02_transform" class="building house" transform="matrix(.6053 0 0 .6053 -19.852 -45.845)">
    <path class="outline" d="m33.296 93.755 5.5571-12.154 29.04-5.2951 7.8299 21.503v138.77l-29.817 10.056-12.403-12.941z"/>
    <path class="west" d="m46.113 105.24-0.207 141.4-12.403-12.941-0.207-139.94 5.5571-12.154z"/>
    <path class="east" d="m45.906 246.64 29.817-10.056v-138.77l-29.61 7.4274z"/>
    <path class="east top" d="m67.893 76.306 7.8299 21.503-29.61 7.4274-7.2599-23.635z"/>
   </g>
  </symbol>
  <symbol id="house-03" viewBox="-2 -2 29.061 107.224">
   <title>House 03</title>
   <g id="house-03_transform" class="building house" transform="matrix(.6053 0 0 .6053 -27.205 -45.544)">
    <path class="outline" d="m45.444 90.969 4.1956-11.7 29.893-3.4798 6.3141 23.609v138.77l-30.969 7.0427-9.2262-14.302z"/>
    <path class="west" d="m55.084 103.81-0.207 141.4-9.2262-14.302-0.207-139.94 4.1956-11.7z"/>
    <path class="east" d="m54.877 245.21 30.969-7.0427v-138.77l-30.762 4.4139z"/>
    <path class="east top" d="m79.532 75.789 6.3141 23.609-30.762 4.4139-5.4446-24.543z"/>
   </g>
  </symbol>
  <symbol id="house-04" viewBox="-2 -2 31.303 110.594">
   <title>House 04</title>
   <g id="house-04_transform" class="building house" transform="matrix(.6053 0 0 .6053 -9.8187 -43.016)">
    <path class="outline" d="m16.722 96.188 12.047-12.29 18.356-12.157 13.703 17.999v138.77l-18.907 18.068-24.992-10.451z"/>
    <path class="west" d="m42.127 105.18-0.207 141.4-24.992-10.451-0.207-139.94 12.047-12.29z"/>
    <path class="east" d="m41.92 246.58 18.907-18.068v-138.77l-18.7 15.439z"/>
    <path class="east top" d="m47.125 71.74 13.703 17.999-18.7 15.439-13.359-21.281z"/>
   </g>
  </symbol>
  <symbol id="house-05" viewBox="-2 -2 30.533 110.008">
   <title>House 05</title>
   <g id="house-05_transform" class="building house" transform="matrix(.6053 0 0 .6053 -36.277 -41.663)">
    <path class="outline" d="m60.433 96.188 12.591-11.927 16.968-14.726 13.276 15.149v138.77l-15.475 19.941-27.152-7.2682z"/>
    <path class="west" d="m87.999 102-0.207 141.4-27.152-7.2682-0.207-139.94 12.591-11.927z"/>
    <path class="east" d="m87.792 243.4 15.475-19.941v-138.77l-15.268 17.312z"/>
    <path class="east top" d="m89.992 69.535 13.276 15.149-15.268 17.312-14.975-17.735z"/>
   </g>
  </symbol>
  <symbol id="house-06" viewBox="-2 -2 31.440 111.751">
   <title>House 06</title>
   <g id="house-06_transform" class="building house" transform="matrix(.6053 0 0 .6053 -36.151 -39.828)">
    <path class="outline" d="m60.225 99.931 12.799-15.67 16.386-17.728 15.147 16.189v138.77l-16.434 21.787-27.691-3.4092z"/>
    <path class="west" d="m88.33 101.88-0.207 141.4-27.691-3.4092-0.207-139.94 12.799-15.67z"/>
    <path class="east" d="m88.123 243.28 16.434-21.787v-138.77l-16.227 19.159z"/>
    <path class="east top" d="m89.41 66.532 15.147 16.189-16.227 19.159-15.306-17.619z"/>
   </g>
  </symbol>
  <symbol id="house-07" viewBox="-2 -2 30.511 108.352">
   <title>House 07</title>
   <g id="house-07_transform" class="building house" transform="matrix(-.6053 0 0 .6053 40.742 -44.639)">
    <path class="outline" d="m24.01 94.954 7.3724-11.246 24.647-9.3435 10.78 18.326v138.77l-25.424 14.105-17.168-10.672z"/>
    <path class="east" d="m41.592 104.17-0.207 141.4-17.168-10.672-0.207-139.94 7.3724-11.246z"/>
    <path class="west" d="m41.385 245.57 25.424-14.105v-138.77l-25.217 11.476z"/>
    <path class="west top" d="m56.029 74.364 10.78 18.326-25.217 11.476-10.21-20.458z"/>
   </g>
  </symbol>
  <symbol id="house-08" viewBox="-2 -2 30.286 107.792">
   <title>House 08</title>
   <g id="house-08_transform" class="building house" transform="matrix(-.6053 0 0 .6053 46.138 -45.845)">
    <path class="outline" d="m33.296 93.755 5.5571-12.154 29.04-5.2951 7.8299 21.503v138.77l-29.817 10.056-12.403-12.941z"/>
    <path class="east" d="m46.113 105.24-0.207 141.4-12.403-12.941-0.207-139.94 5.5571-12.154z"/>
    <path class="west" d="m45.906 246.64 29.817-10.056v-138.77l-29.61 7.4274z"/>
    <path class="west top" d="m67.893 76.306 7.8299 21.503-29.61 7.4274-7.2599-23.635z"/>
   </g>
  </symbol>
  <symbol id="house-09" viewBox="-2 -2 29.061 107.224">
   <title>House 09</title>
   <g id="house-09_transform" class="building house" transform="matrix(-.6053 0 0 .6053 52.265 -45.544)">
    <path class="outline" d="m45.444 90.969 4.1956-11.7 29.893-3.4798 6.3141 23.609v138.77l-30.969 7.0427-9.2262-14.302z"/>
    <path class="east" d="m55.084 103.81-0.207 141.4-9.2262-14.302-0.207-139.94 4.1956-11.7z"/>
    <path class="west" d="m54.877 245.21 30.969-7.0427v-138.77l-30.762 4.4139z"/>
    <path class="west top" d="m79.532 75.789 6.3141 23.609-30.762 4.4139-5.4446-24.543z"/>
   </g>
  </symbol>
  <symbol id="house-10" viewBox="-2 -2 31.303 110.594">
   <title>House 10</title>
   <g id="house-10_transform" class="building house" transform="matrix(-.6053 0 0 .6053 37.121 -43.016)">
    <path class="outline" d="m16.722 96.188 12.047-12.29 18.356-12.157 13.703 17.999v138.77l-18.907 18.068-24.992-10.451z"/>
    <path class="east" d="m42.127 105.18-0.207 141.4-24.992-10.451-0.207-139.94 12.047-12.29z"/>
    <path class="west" d="m41.92 246.58 18.907-18.068v-138.77l-18.7 15.439z"/>
    <path class="west top" d="m47.125 71.74 13.703 17.999-18.7 15.439-13.359-21.281z"/>
   </g>
  </symbol>
  <symbol id="house-11" viewBox="-2 -2 30.533 110.008">
   <title>House 11</title>
   <g id="house-11_transform" class="building house" transform="matrix(-.6053 0 0 .6053 62.81 -41.663)">
    <path class="outline" d="m60.433 96.188 12.591-11.927 16.968-14.726 13.276 15.149v138.77l-15.475 19.941-27.152-7.2682z"/>
    <path class="east" d="m87.999 102-0.207 141.4-27.152-7.2682-0.207-139.94 12.591-11.927z"/>
    <path class="west" d="m87.792 243.4 15.475-19.941v-138.77l-15.268 17.312z"/>
    <path class="west top" d="m89.992 69.535 13.276 15.149-15.268 17.312-14.975-17.735z"/>
   </g>
  </symbol>
  <symbol id="house-12" viewBox="-2 -2 31.440 111.751">
   <title>House 12</title>
   <g id="house-12_transform" class="building house" transform="matrix(-.6053 0 0 .6053 63.591 -39.828)">
    <path class="outline" d="m60.225 99.931 12.799-15.67 16.386-17.728 15.147 16.189v138.77l-16.434 21.787-27.691-3.4092z"/>
    <path class="east" d="m88.33 101.88-0.207 141.4-27.691-3.4092-0.207-139.94 12.799-15.67z"/>
    <path class="west" d="m88.123 243.28 16.434-21.787v-138.77l-16.227 19.159z"/>
    <path class="east top" d="m89.41 66.532 15.147 16.189-16.227 19.159-15.306-17.619z"/>
   </g>
  </symbol>
  <symbol id="arch-01" viewBox="-2 -2 66.529 176.628">
   <title>Arch 01</title>
   <g id="arch-01_transform" class="building arch" transform="matrix(1.7233 0 0 1.2857 -447.71 -65.192)">
    <path class="outline" d="m266.18 167.68-6.0724-7.6148-0.10111-102.92 1.5648-3.1917 13.055-3.026 19.729 22.006 1.529 3.5321-0.27203 102.34-14.597 5.9173-6.0724-7.6148-0.016-12.983z"/>
    <path class="east" d="m266.18 167.68 14.597-5.9173 0.61075-80.928-15.251-16.775z"/>
    <path class="west" d="m260 57.148 0.0284 23.133 0.0727 79.788 6.0722 7.6148-0.031-75.234c-2e-3 -4.5592 1.1474-7.1936 3.3768-6.9709 5.0202 0.5014 5.3384 11.152 5.344 16.99l0.0727 74.644 6.0722 7.6148 0.3736-103.89z"/>
    <path class="east" d="m281.01 184.73 14.597-5.9173 0.27204-102.34-14.496 4.3705z"/>
    <path class="west top" d="m261.57 53.956-1.5648 3.1917 21.382 23.691-0.046-3.858z"/>
    <path class="east top" d="m281.38 80.839 14.496-4.3704-1.529-3.5321-13.013 4.0445z"/>
    <path class="roof" d="m281.34 76.981 13.013-4.0445-19.729-22.006-13.055 3.0261z"/>
   </g>
  </symbol>
  <symbol id="arch-02" viewBox="-2 -2 66.529 176.628">
   <title>Arch 02</title>
   <g id="arch-02_transform" class="building arch" transform="matrix(-1.7233 0 0 1.2857 510.24 -65.192)">
    <path class="outline" d="m266.18 167.68-6.0724-7.6148-0.10111-102.92 1.5648-3.1917 13.055-3.026 19.729 22.006 1.529 3.5321-0.27203 102.34-14.597 5.9173-6.0724-7.6148-0.016-12.983z"/>
    <path class="west" d="m266.18 167.68 14.597-5.9173 0.61075-80.928-15.251-16.775z"/>
    <path class="east" d="m260 57.148 0.0284 23.133 0.0727 79.788 6.0722 7.6148-0.031-75.234c-2e-3 -4.5592 1.1474-7.1936 3.3768-6.9709 5.0202 0.5014 5.3384 11.152 5.344 16.99l0.0727 74.644 6.0722 7.6148 0.3736-103.89z"/>
    <path class="west" d="m281.01 184.73 14.597-5.9173 0.27204-102.34-14.496 4.3705z"/>
    <path class="east top" d="m261.57 53.956-1.5648 3.1917 21.382 23.691-0.046-3.858z"/>
    <path class="west top" d="m281.38 80.839 14.496-4.3704-1.529-3.5321-13.013 4.0445z"/>
    <path class="roof" d="m281.34 76.981 13.013-4.0445-19.729-22.006-13.055 3.0261z"/>
   </g>
  </symbol>
  <symbol id="arch-03" viewBox="-2 -2 96.304 168.544">
   <title>Arch 03</title>
   <g id="arch-03_transform" class="building arch" transform="matrix(1.7233 0 0 1.2857 -451.9 -72.508)">
    <path class="outline" d="m298.12 76.85-0.1407 86.881 6.919 10.398 10.59-3.4278 0.10111-102.92-1.1176-3.6198-7.5577-7.5405-42.952 10.434-1.529 3.5321 0.27203 102.84 6.33 10.716 13.026-3.8103 0.0727-74.644c6e-3 -5.8381 2.096-14.757 12.065-16.095 9.3069-1.2499 11.004 6.2723 10.989 10.831"/>
    <path class="west" d="m297.98 163.73 0.1407-86.881 8.06-0.96308-1.2817 98.242-6.919-10.398"/>
    <path class="east" d="m282.06 180.33-13.026 3.8103-0.3736-103.89 46.927-12.468-0.0284 23.133-0.0727 79.788-10.59 3.4277 0.29101-73.71c0.018-4.5591-1.6826-12.081-10.989-10.831-9.9693 1.3388-12.06 10.257-12.065 16.095l-0.0727 74.644"/>
    <path class="west" d="m269.03 184.14-6.33-10.716-0.27204-102.84 6.2286 9.6618z"/>
    <path class="east top" d="m314.47 64.161 1.1176 3.6198-46.927 12.468 0.87643-4.7999z"/>
    <path class="west top" d="m268.66 80.248-6.2285-9.6617 1.529-3.5321 5.576 8.394z"/>
    <path class="roof" d="m269.54 75.448-5.576-8.394 42.952-10.434 7.5577 7.5405z"/>
   </g>
  </symbol>
  <symbol id="arch-04" viewBox="-2 -2 96.304 168.544">
   <title>Arch 04</title>
   <g id="arch-04_transform" class="building arch" transform="matrix(-1.7233 0 0 1.2857 544.2 -72.508)">
    <path class="outline" d="m298.12 76.85-0.1407 86.881 6.919 10.398 10.59-3.4278 0.10111-102.92-1.1176-3.6198-7.5577-7.5405-42.952 10.434-1.529 3.5321 0.27203 102.84 6.33 10.716 13.026-3.8103 0.0727-74.644c6e-3 -5.8381 2.096-14.757 12.065-16.095 9.3069-1.2499 11.004 6.2723 10.989 10.831"/>
    <path class="east" d="m297.98 163.73 0.1407-86.881 8.06-0.96308-1.2817 98.242-6.919-10.398"/>
    <path class="west" d="m282.06 180.33-13.026 3.8103-0.3736-103.89 46.927-12.468-0.0284 23.133-0.0727 79.788-10.59 3.4277 0.29101-73.71c0.018-4.5591-1.6826-12.081-10.989-10.831-9.9693 1.3388-12.06 10.257-12.065 16.095l-0.0727 74.644"/>
    <path class="east" d="m269.03 184.14-6.33-10.716-0.27204-102.84 6.2286 9.6618z"/>
    <path class="west top" d="m314.47 64.161 1.1176 3.6198-46.927 12.468 0.87643-4.7999z"/>
    <path class="east top" d="m268.66 80.248-6.2285-9.6617 1.529-3.5321 5.576 8.394z"/>
    <path class="roof" d="m269.54 75.448-5.576-8.394 42.952-10.434 7.5577 7.5405z"/>
   </g>
  </symbol>
  <symbol id="tower-01" viewBox="-2 -2 69.107 215.189">
   <title>Tower 01</title>
   <g id="tower-01_transform" class="tower building" transform="matrix(1.2176 0 0 1.059 -527.56 -89.367)">
    <path class="outline" d="m450.76 88.076 9.138-3.4042 9.3373 3.4267 15.035 44.413 0.86935 10.445-4.7039 2.7896 6.0076 2.2959-2.6035 20.279-3.8695 4.606 2e-3 96.934-19.945 13.632-20.003-11.813-2e-5 -96.39-3.8651-4.2694-2.6075-20.218 5.9182-2.9316-4.6145-2.2373 0.86918-9.9644z"/>
    <path class="east" d="m460.03 185.88-7.5e-4 97.611 19.945-13.632-2e-3 -96.934z"/>
    <path class="west" d="m460.03 283.49-20.002-11.813v-96.39l20.003 10.592z"/>
    <path class="east" d="m460.03 162.74-0.0174 20.785 23.829-15.204 2.6035-20.279z"/>
    <path class="west" d="m460.01 183.52-23.851-12.504-2.6075-20.218 26.476 11.937z"/>
    <path class="roof" d="m460.03 162.74-26.476-11.937 26.416-13.023 26.476 10.262z"/>
    <path class="east" d="m460.01 145.57v12.275l25.129-14.886-0.86934-10.445z"/>
    <path class="west" d="m460.01 157.84-25.155-12.209 0.86918-9.9644 24.286 9.898z"/>
    <path class="east top" d="m459.9 92.057 0.11266 53.51 24.26-13.056-15.035-44.413z"/>
    <path class="west top" d="m460.01 145.57-24.286-9.898 15.035-47.593 9.138 3.9814z"/>
    <path class="east bottom" d="m460.03 185.88-0.0173-2.3574 23.829-15.204-3.869 4.606z"/>
    <path class="west bottom" d="m436.16 171.02 3.8652 4.2694 20.003 10.592-0.0173-2.3574z"/>
    <path class="roof" d="m459.9 92.057 9.3373-3.9588-9.3373-3.4267-9.138 3.4042z"/>
   </g>
  </symbol>
  <symbol id="tower-02" viewBox="-2 -2 104.284 209.087">
   <title>Tower 02</title>
   <g id="tower-02_transform" class="building tower" transform="matrix(-.6053 0 0 .6053 109.66 -18.046)">
    <path class="outline" d="m180.64 305.96-18.479 7.8591-0.20892 36.243-44.202 17.971-16.265-18.749-15.261 5.9544-15.498-18.212-28.804 12.038-25.932-31.833v-136.12l28.553-28.083-0.099819-67.649 18.805-6.3657-0.015033-31.597 49.907-16.993 28.331 56.867 0.0342 17.633 17.214 31.662-0.0637 23.946 22.011 22.782z"/>
    <path class="east" d="m86.432 163.43-0.207 191.8-41.743-49.045-0.0378-220.81z"/>
    <path class="west" d="m151.69 153.27 0.14283 164.73 28.804-12.039 0.0261-122.64z"/>
    <path class="west" d="m86.225 355.24 72.495-29.474v-189.18l-72.288 26.846z"/>
    <path class="west top" d="m117.34 60.562 41.38 76.028-72.288 26.846-41.988-78.053z"/>
    <path class="west" d="m41.78 211.13 0.14283 137.93 28.804-12.039 0.0261-155.37z"/>
    <path class="east" d="m41.923 349.07-25.932-31.833v-136.12l25.79 30.019z"/>
    <path class="east top" d="m44.544 153.03-28.553 28.083 25.79 30.019 28.973-29.481z"/>
    <path class="east" d="m117.88 220.93-0.12621 147.11-16.265-18.749-0.023-164.79z"/>
    <path class="west" d="m117.75 368.03 44.202-17.971v-145.5l-44.076 16.368z"/>
    <path class="west top" d="m145.91 169.36 16.044 35.201-44.076 16.368-16.415-36.436z"/>
    <path class="east" d="m91.981 105.67-0.14172 38.88-28.579-51.274-0.0259-45.86z"/>
    <path class="west" d="m91.839 144.55 49.633-19.661v-37.599l-49.491 18.38z"/>
    <path class="west top" d="m113.14 30.426 28.331 56.867-49.491 18.38-28.747-58.254z"/>
   </g>
  </symbol>
  <symbol id="arch-05" viewBox="-2 -2 199.284 194.155">
   <title>Arch 05</title>
   <g id="arch-05_transform" class="building arch" transform="matrix(1.7233 0 0 1.2857 -451.9 -46.897)">
    <path class="outline" d="m364.95 84.62c0.0533-12.756-23.544-14.446-39.595-9.4794-16.357 5.0606-43.198 17.035-43.216 34.659l-0.0727 70.528-13.026 3.8103-6.3302-10.715-0.27204-102.84 1.529-3.5321 102.71-30.349 7.5577 7.5405 1.1176 3.6198-0.10111 102.92-10.59 3.4277-6.9191-10.398 0.1407-86.881"/>
    <path class="west" d="m357.74 143.82 0.1407-86.881 8.06-0.96308-1.2817 98.242-6.919-10.398"/>
    <path class="east" d="m282.06 180.33-13.026 3.8103-0.3736-103.89 106.68-32.383-0.0284 23.133-0.0727 79.788-10.59 3.4277 0.29101-69.594c0.0533-12.756-23.544-14.446-39.595-9.4795-16.357 5.0606-43.198 17.035-43.216 34.659l-0.0727 70.528"/>
    <path class="west" d="m269.03 184.14-6.33-10.716-0.27204-102.84 6.2286 9.6618z"/>
    <path class="east top" d="m374.23 44.245 1.1176 3.6198-106.68 32.383 0.87643-4.7999z"/>
    <path class="west top" d="m268.66 80.248-6.2285-9.6617 1.529-3.5321 5.576 8.394z"/>
    <path class="roof" d="m269.54 75.448-5.576-8.394 102.71-30.349 7.5577 7.5405z"/>
   </g>
  </symbol>
  <symbol id="arch-08" viewBox="-2 -2 137.006 237.726">
   <title>Arch 08</title>
   <g id="arch-08_transform" class="building arch" transform="matrix(-1.7233 0 0 1.2857 580.72 -65.191)">
    <path class="outline" d="m266.14 92.45c-5e-3 -11.361 12.874 1.3144 25.537 16.283 13.273 15.69 24.072 31.948 24.081 41.257l0.0727 74.644 6.0722 7.6148 14.598-5.9173 0.27204-102.34-1.529-3.5321-60.625-69.527-13.055 3.0261-1.5648 3.1917 0.1011 102.92 6.0722 7.6148 14.598-5.9173-0.23583-98.806"/>
    <path class="west" d="m266.18 167.68 14.597-5.9173-0.23583-98.806-14.405 1.1039z"/>
    <path class="east" d="m260 57.148 0.0284 23.133 0.0727 79.788 6.0722 7.6148-0.031-75.234c-5e-3 -11.361 12.874 1.3144 25.537 16.283 13.273 15.69 24.072 31.948 24.081 41.257l0.0727 74.644 6.0722 7.6148 0.3736-103.89z"/>
    <path class="west" d="m321.91 232.25 14.597-5.9173 0.27204-102.34-14.496 4.3705z"/>
    <path class="east top" d="m261.57 53.956-1.5648 3.1917 62.278 71.212-0.046-3.858z"/>
    <path class="west top" d="m322.28 128.36 14.496-4.3704-1.529-3.5321-13.013 4.0445z"/>
    <path class="roof" d="m322.23 124.5 13.013-4.0445-60.625-69.527-13.055 3.0261z"/>
   </g>
  </symbol>
  <symbol id="arch-06" viewBox="-2 -2 199.284 194.155">
   <title>Arch 06</title>
   <g id="arch-06_transform" class="building arch" transform="matrix(-1.7233 0 0 1.2857 647.18 -46.897)">
    <path class="outline" d="m364.95 84.62c0.0533-12.756-23.544-14.446-39.595-9.4794-16.357 5.0606-43.198 17.035-43.216 34.659l-0.0727 70.528-13.026 3.8103-6.3302-10.715-0.27204-102.84 1.529-3.5321 102.71-30.349 7.5577 7.5405 1.1176 3.6198-0.10111 102.92-10.59 3.4277-6.9191-10.398 0.1407-86.881"/>
    <path class="east" d="m357.74 143.82 0.1407-86.881 8.06-0.96308-1.2817 98.242-6.919-10.398"/>
    <path class="west" d="m282.06 180.33-13.026 3.8103-0.3736-103.89 106.68-32.383-0.0284 23.133-0.0727 79.788-10.59 3.4277 0.29101-69.594c0.0533-12.756-23.544-14.446-39.595-9.4795-16.357 5.0606-43.198 17.035-43.216 34.659l-0.0727 70.528"/>
    <path class="east" d="m269.03 184.14-6.33-10.716-0.27204-102.84 6.2286 9.6618z"/>
    <path class="west top" d="m374.23 44.245 1.1176 3.6198-106.68 32.383 0.87643-4.7999z"/>
    <path class="east top" d="m268.66 80.248-6.2285-9.6617 1.529-3.5321 5.576 8.394z"/>
    <path class="roof" d="m269.54 75.448-5.576-8.394 102.71-30.349 7.5577 7.5405z"/>
   </g>
  </symbol>
  <symbol id="arch-07" viewBox="-2 -2 137.006 237.726">
   <title>Arch 07</title>
   <g id="arch-07_transform" class="building arch" transform="matrix(1.7233 0 0 1.2857 -447.71 -65.191)">
    <path class="outline" d="m266.14 92.45c-5e-3 -11.361 12.874 1.3144 25.537 16.283 13.273 15.69 24.072 31.948 24.081 41.257l0.0727 74.644 6.0722 7.6148 14.598-5.9173 0.27204-102.34-1.529-3.5321-60.625-69.527-13.055 3.0261-1.5648 3.1917 0.1011 102.92 6.0722 7.6148 14.598-5.9173-0.23583-98.806"/>
    <path class="east" d="m266.18 167.68 14.597-5.9173-0.23583-98.806-14.405 1.1039z"/>
    <path class="west" d="m260 57.148 0.0284 23.133 0.0727 79.788 6.0722 7.6148-0.031-75.234c-5e-3 -11.361 12.874 1.3144 25.537 16.283 13.273 15.69 24.072 31.948 24.081 41.257l0.0727 74.644 6.0722 7.6148 0.3736-103.89z"/>
    <path class="east" d="m321.91 232.25 14.597-5.9173 0.27204-102.34-14.496 4.3705z"/>
    <path class="west top" d="m261.57 53.956-1.5648 3.1917 62.278 71.212-0.046-3.858z"/>
    <path class="east top" d="m322.28 128.36 14.496-4.3704-1.529-3.5321-13.013 4.0445z"/>
    <path class="roof" d="m322.23 124.5 13.013-4.0445-60.625-69.527-13.055 3.0261z"/>
   </g>
  </symbol>
  <symbol id="spike-01" class="building spike" viewBox="75.115 -46 75.115 187.894">
   <title>Spike 01</title>
   <path class="outline" d="m78.159 30.922 21.4-70.552 11.127-3.605 11.369 3.6289 24.493 69.658 1.0585 90.676-36.783 19.27-33.722-18.909z"/>
   <path class="east" d="m110.82 47.384v92.614l36.783-19.27-1.0585-90.676z"/>
   <path class="west" d="m110.82 140-33.722-18.909 1.0583-90.166 32.664 16.461z"/>
   <path class="east top" d="m110.69-35.414 0.13718 82.797 35.725-17.332-24.493-69.658z"/>
   <path class="west top" d="m110.82 47.384-32.664-16.461 21.4-70.552 11.127 4.2163z"/>
   <path class="roof" d="m110.69-35.414 11.369-4.1924-11.369-3.6289-11.127 3.605z"/>
  </symbol>
  <symbol id="spike-02" viewBox="-2 -2 68.571 195.423">
   <title>Spike 02</title>
   <g id="spike-02_transform" class="building spike" transform="matrix(-1 0 0 1 137.33 40.841)">
    <path class="outline" d="m74.119 47.222 22.112-82.696 5.6075-5.0492 12.405 1.5754 21.72 68.999 1.0585 90.676-14.111 29.5-49.851-12.839z"/>
    <path class="west" d="m122.91 57.614v92.614l14.111-29.5-1.0585-90.676z"/>
    <path class="east" d="m122.91 150.23-49.851-12.839 1.0583-90.166 48.792 10.392z"/>
    <path class="west top" d="m110.57-33.131 12.34 90.745 13.053-27.562-21.72-68.999z"/>
    <path class="east top" d="m122.91 57.614-48.792-10.392 22.112-82.696 14.34 2.3431z"/>
    <path class="roof" d="m110.57-33.131 3.672-5.8169-12.405-1.5753-5.6075 5.0492z"/>
   </g>
  </symbol>
  <symbol id="spike-03" class="building spike" viewBox="70 -42.5 68.571 195.423">
   <title>Spike 03</title>
   <path class="outline" d="m74.119 47.222 22.112-82.696 5.6075-5.0492 12.405 1.5754 21.72 68.999 1.0585 90.676-14.111 29.5-49.851-12.839z"/>
   <path class="east" d="m122.91 57.614v92.614l14.111-29.5-1.0585-90.676z"/>
   <path class="west" d="m122.91 150.23-49.851-12.839 1.0583-90.166 48.792 10.392z"/>
   <path class="east top" d="m110.57-33.131 12.34 90.745 13.053-27.562-21.72-68.999z"/>
   <path class="west top" d="m122.91 57.614-48.792-10.392 22.112-82.696 14.34 2.3431z"/>
   <path class="roof" d="m110.57-33.131 3.672-5.8169-12.405-1.5753-5.6075 5.0492z"/>
  </symbol>
  <symbol id="spike-04" viewBox="-2 -2 78.290 190.062">
   <title>Spike 04</title>
   <g id="spike-04_transform" class="building spike" transform="matrix(-1 0 0 1 147.91 40.422)">
    <path class="outline" d="m74.984 36.214 25.574-71.739 8.4817-4.5723 13.068 3.7485 24.44 66.401 1.0585 90.676-31.492 24.561-42.189-18.909z"/>
    <path class="west" d="m116.11 52.675v92.614l31.492-24.561-1.0585-90.676z"/>
    <path class="east" d="m116.11 145.29-42.189-18.909 1.0583-90.166 41.13 16.461z"/>
    <path class="west top" d="m113.72-31.768 2.3917 84.443 30.433-22.624-24.44-66.401z"/>
    <path class="east top" d="m116.11 52.675-41.13-16.461 25.574-71.739 13.165 3.7572z"/>
    <path class="roof" d="m113.72-31.768 8.385-4.5809-13.068-3.7485-8.4817 4.5723z"/>
   </g>
  </symbol>
  <symbol id="spike-05" class="building spike" viewBox="71 -44 78.290 190.062">
   <title>Spike 05</title>
   <path class="outline" d="m74.984 36.214 25.574-71.739 8.4817-4.5723 13.068 3.7485 24.44 66.401 1.0585 90.676-31.492 24.561-42.189-18.909z"/>
   <path class="east" d="m116.11 52.675v92.614l31.492-24.561-1.0585-90.676z"/>
   <path class="west" d="m116.11 145.29-42.189-18.909 1.0583-90.166 41.13 16.461z"/>
   <path class="east top" d="m113.72-31.768 2.3917 84.443 30.433-22.624-24.44-66.401z"/>
   <path class="west top" d="m116.11 52.675-41.13-16.461 25.574-71.739 13.165 3.7572z"/>
   <path class="roof" d="m113.72-31.768 8.385-4.5809-13.068-3.7485-8.4817 4.5723z"/>
  </symbol>
 </defs>
</svg>
