<?xml version="1.0" encoding="UTF-8" standalone="no"?>
<!-- Created with Inkscape (http://www.inkscape.org/) -->

<svg
   xmlns:dc="http://purl.org/dc/elements/1.1/"
   xmlns:cc="http://creativecommons.org/ns#"
   xmlns:rdf="http://www.w3.org/1999/02/22-rdf-syntax-ns#"
   xmlns:svg="http://www.w3.org/2000/svg"
   xmlns="http://www.w3.org/2000/svg"
   xmlns:sodipodi="http://sodipodi.sourceforge.net/DTD/sodipodi-0.dtd"
   xmlns:inkscape="http://www.inkscape.org/namespaces/inkscape"
   width="210mm"
   height="297mm"
   viewBox="0 0 210 297"
   version="1.1"
   id="svg5051"
   inkscape:version="0.92.3 (2405546, 2018-03-11)"
   sodipodi:docname="nausikaa-logotype-001.svg">
  <defs
     id="defs5045" />
  <sodipodi:namedview
     id="base"
     pagecolor="#ffffff"
     bordercolor="#666666"
     borderopacity="1.0"
     inkscape:pageopacity="0.0"
     inkscape:pageshadow="2"
     inkscape:zoom="0.69562803"
     inkscape:cx="188.38501"
     inkscape:cy="631.88477"
     inkscape:document-units="mm"
     inkscape:current-layer="layer1"
     showgrid="false"
     inkscape:window-width="1920"
     inkscape:window-height="1017"
     inkscape:window-x="0"
     inkscape:window-y="30"
     inkscape:window-maximized="1" />
  <metadata
     id="metadata5048">
    <rdf:RDF>
      <cc:Work
         rdf:about="">
        <dc:format>image/svg+xml</dc:format>
        <dc:type
           rdf:resource="http://purl.org/dc/dcmitype/StillImage" />
        <dc:title></dc:title>
      </cc:Work>
    </rdf:RDF>
  </metadata>
  <g
     inkscape:label="Layer 1"
     inkscape:groupmode="layer"
     id="layer1">
    <rect
       id="rect34"
       width="267.0069"
       height="333.94882"
       x="-30.428139"
       y="-24.016876"
       style="stroke-width:0.26458332;fill:#fdf9e7;fill-opacity:1" />
    <g
       id="g32"
       transform="matrix(0.38756234,0,0,0.38756234,64.891791,75.889981)"
       style="fill:#000000">
      <path
         sodipodi:nodetypes="csssscsssssssscsssc"
         inkscape:connector-curvature="0"
         id="path5607"
         d="m -108.86775,-205.56646 c 0,0 -10.26533,55.72628 -15.40578,83.99335 -0.60673,3.33644 0.41392,3.88764 1.9265,4.01908 4.93357,0.4287 9.21368,-0.25133 13.79545,-0.69802 0.88329,-0.0862 1.63764,-0.28661 1.77985,-1.58833 1.08475,-9.92908 10.035623,-42.2994 9.86774,-61.09481 0,0 10.946555,39.55248 11.490375,56.47421 0.05031,1.56539 1.217439,1.6439 2.128923,1.67291 6.718269,0.21381 11.005856,0.45711 15.66951,-0.22898 0.801774,-0.11795 1.747192,-0.31046 1.928164,-1.44393 2.632651,-16.4888 13.202271,-65.16496 17.780438,-85.50886 0.30094,-1.33728 0.903838,-2.27339 -0.426966,-2.7157 -1.334915,-0.44368 -9.66056,-1.70041 -12.536921,-2.02001 -1.47805,-0.16423 -1.738631,1.91146 -1.968177,2.72648 -1.480773,5.25751 -9.696164,42.05261 -13.342033,60.73305 -0.815762,-12.49005 -10.078364,-50.01483 -10.34007,-51.27065 -0.270683,-1.29891 -0.542248,-2.46852 -2.980433,-2.71855 -2.529507,-0.2594 -16.57438,-1.45857 -17.5883,-1.30433 -1.09355,0.16635 -1.77827,0.97309 -1.77827,0.97309 z"
         style="fill:#000000;stroke:none;stroke-width:0.28309402px;stroke-linecap:butt;stroke-linejoin:round;stroke-opacity:1" />
      <path
         sodipodi:nodetypes="ccccsssssccssssssss"
         inkscape:connector-curvature="0"
         d="m -22.894927,-189.78289 c 0,0 1.507888,24.6011 -0.50758,46.23504 -4.219832,-0.38145 -9.443451,-0.2691 -14.384586,0.22875 4.192018,-18.8282 14.892166,-46.46379 14.892166,-46.46379 z m -5.895477,-20.50284 c -8.525901,21.99066 -21.395788,61.13052 -30.907395,89.99679 -0.731411,2.21971 0.392755,2.42933 1.358566,2.44429 3.759339,0.0582 6.659896,0.0652 9.983985,0.28838 2.318569,0.15566 2.7234,-0.37171 2.979963,-1.58964 0.843327,-4.00334 3.121743,-11.53331 3.121743,-11.53331 5.552721,-0.6987 12.566428,-0.91462 18.965333,-0.34551 0,0 -0.311657,5.70736 -1.086853,11.11399 -0.244237,1.70344 0.04447,2.09926 0.815141,2.09151 6.915481,-0.0695 10.619608,-0.0478 13.767183,-0.63077 1.401738,-0.25962 1.69113,-0.62067 1.717057,-1.30906 1.366239,-36.27481 0.314398,-59.63633 -1.490648,-89.00844 -0.100664,-1.63804 -0.760604,-3.02721 -2.30396,-3.1799 -6.449782,-0.63812 -8.003808,-0.8262 -13.591627,-0.37216 -1.794514,0.14582 -2.862438,0.83175 -3.328488,2.03383 z"
         style="fill:#000000;stroke:none;stroke-width:0.26458332px;stroke-linecap:butt;stroke-linejoin:miter;stroke-opacity:1"
         id="path5620" />
      <path
         sodipodi:nodetypes="cssssssssssssssssssc"
         inkscape:connector-curvature="0"
         id="path5623"
         d="m 11.256036,-214.05292 c -4.3555791,23.00586 -7.3802836,36.55366 -11.3420977,66.03486 -1.446222,10.76183 -1.8300134,18.6411 3.0401523,24.6912 4.0124346,4.98456 8.6845034,5.53001 13.6859694,6.06661 7.795036,0.83631 14.233457,-0.20899 20.440461,-8.15195 7.474191,-9.56456 8.399127,-19.54669 10.70835,-30.19867 4.011165,-18.50266 5.068248,-40.33937 7.525726,-53.23137 0.47569,-2.49547 0.282238,-4.5102 -1.179986,-4.56407 -3.147155,-0.11592 -6.566402,0.26271 -10.619961,-0.0662 -0.889593,-0.0722 -2.471959,0.81763 -2.637634,1.65365 -3.198344,16.13949 -6.422229,47.96941 -11.968056,69.4371 -1.505857,5.82911 -2.94851,9.65453 -6.438453,11.14867 -2.567546,1.09923 -5.293841,0.4455 -7.42486,-1.3069 -2.282307,-1.87681 -2.590171,-5.5996 -2.359992,-8.53281 0.694127,-8.84534 2.753055,-18.38724 3.887035,-26.19375 2.242903,-15.44053 6.107387,-29.79068 9.812283,-45.63065 0.245353,-1.04896 0.123721,-2.7761 -1.27467,-2.98653 -2.851128,-0.42904 -8.284053,-0.0341 -11.150723,0.19885 -1.828485,0.14861 -2.703544,0.91802 -2.703544,1.63191 z"
         style="fill:#000000;stroke:none;stroke-width:0.27103591px;stroke-linecap:butt;stroke-linejoin:miter;stroke-opacity:1" />
      <path
         sodipodi:nodetypes="ssssssssssssssssssssss"
         inkscape:connector-curvature="0"
         id="path5627"
         d="m 81.438564,-213.461 c -10.04691,1.57495 -14.42645,5.28517 -17.2164,12.6154 -3.28587,8.63323 4.51876,24.47033 6.65066,32.3368 2.79308,10.30617 6.08202,20.8339 5.12061,31.46847 -0.25433,2.81312 -0.6317,5.80099 -3.34096,6.59987 -3.52405,1.03913 -5.39381,0.57151 -7.25509,-1.13034 -2.63224,-2.40677 -3.10231,-7.95229 -4.39005,-11.14239 -0.43903,-1.08759 -1.93186,-2.05699 -3.0601,-1.73665 -2.6545,0.7537 -5.54626,2.60133 -7.62049,4.5582 -1.17071,1.10447 -1.50847,1.92392 -1.36667,3.29639 0.72323,6.99982 3.51167,15.61263 9.10406,19.88415 4.52103,3.45322 11.48612,4.24789 16.88814,2.46389 5.64191,-1.86323 10.52602,-5.04107 12.84343,-10.51212 4.17657,-9.86022 0.50825,-23.96286 -1.01863,-34.56175 -1.56166,-10.84026 -4.7258,-17.48458 -7.3452,-28.11889 -1.93768,-7.8667 -2.26108,-11.12101 1.76935,-12.67025 4.48302,-1.72321 6.84278,2.02019 8.21469,5.26103 1.41669,3.34658 1.39546,6.51569 2.5858,8.63694 0.57396,1.02281 0.91129,1.38707 2.59807,0.98812 2.16601,-0.5123 5.15115,-2.62635 7.972416,-4.78058 1.93318,-1.4761 1.57407,-2.22173 0.38015,-7.2283 -2.09076,-8.7674 -6.925166,-18.5149 -21.513786,-16.22799 z"
         style="fill:#000000;stroke:none;stroke-width:0.26458332px;stroke-linecap:butt;stroke-linejoin:miter;stroke-opacity:1" />
      <path
         sodipodi:nodetypes="ssssssssssssss"
         inkscape:connector-curvature="0"
         d="m 118.46847,-204.42393 c -5.32636,-0.5086 -8.74754,-3.77466 -8.46667,-9.26041 0.3678,-7.18348 5.24351,-9.12548 11.00972,-8.36135 4.93461,0.65394 9.39953,3.11427 7.7757,10.21343 -1.23205,5.38632 -5.11194,7.90551 -10.31875,7.40833 z m -10.1595,20.10199 c -3.9651,20.39056 -6.79339,37.2191 -10.413207,64.38037 -0.0915,0.68657 0.57645,1.50816 1.2505,1.66775 4.056257,0.96041 6.305537,1.32191 10.755287,0.8978 0.71834,-0.0685 1.33652,-0.91009 1.42952,-1.62567 3.08017,-23.69767 6.59605,-43.39731 10.81013,-64.86072 0.10865,-0.55335 -0.19765,-1.44309 -0.75724,-1.51279 -3.23089,-0.40244 -7.33498,-0.24065 -11.10045,-0.26331 -0.79105,-0.005 -1.82353,0.54004 -1.97454,1.31657 z"
         style="fill:#000000;stroke:none;stroke-width:0.26458332px;stroke-linecap:butt;stroke-linejoin:miter;stroke-opacity:1"
         id="path5631" />
      <path
         sodipodi:nodetypes="sssssccsssscsssscssss"
         inkscape:connector-curvature="0"
         id="path5636"
         d="m 137.16762,-215.76903 c -3.31821,24.23422 -10.4144,58.16695 -13.6283,86.95312 -0.0954,0.85499 0.61342,1.9768 1.46033,2.12805 4.74336,0.84711 9.67577,0.24106 11.99723,0.19867 0.88918,-0.0162 2.09644,-0.61905 2.20523,-1.5017 0.76441,-6.20183 2.98565,-25.0569 2.98565,-25.0569 l 4.07834,-5.04067 c 0,0 9.90536,24.09625 15.85341,41.55768 0.70461,2.06848 2.73278,2.17408 3.81981,1.83961 4.35271,-1.3393 7.26732,-2.57984 11.47061,-4.63467 0.6465,-0.31605 1.22324,-1.2595 0.96497,-1.93117 -5.32616,-13.85127 -20.53191,-50.2365 -20.53191,-50.2365 0,0 19.02167,-25.20119 28.37768,-36.93293 0.67115,-0.84157 0.70808,-1.94633 -0.59588,-3.08518 -2.49984,-2.1833 -5.54923,-5.47864 -8.35934,-7.84678 -0.73429,-0.6188 -2.34462,-0.64235 -2.8765,0.15715 -5.53168,8.31499 -27.1943,37.7545 -27.1943,37.7545 0,0 3.73025,-23.4688 5.76076,-32.98559 0.30681,-1.43797 -0.39491,-2.25382 -1.27129,-2.30684 -3.69012,-0.22324 -7.98757,-0.85923 -11.8737,-0.85931 -1.65235,-4e-5 -2.45851,0.48354 -2.6428,1.82946 z"
         style="fill:#000000;stroke:none;stroke-width:0.26458332px;stroke-linecap:butt;stroke-linejoin:miter;stroke-opacity:1" />
      <path
         sodipodi:nodetypes="cccccccccccscsccccc"
         inkscape:connector-curvature="0"
         id="path5640"
         d="m 205.47284,-220.2703 c -1.93373,-0.0127 -2.49682,1.4017 -3.02977,2.62774 -4.39705,10.11524 -14.09611,48.57483 -22.58655,89.89689 -0.22935,1.12805 0.0385,3.04711 0.88468,3.34243 4.27503,1.49207 6.51955,1.36559 11.27975,1.80449 1.27053,0.11714 2.09653,-0.43678 2.17043,-1.27227 0.35391,-4.00274 2.00814,-12.04113 2.00814,-12.04113 l 19.33731,-1.21853 c 0,0 0.82076,7.66875 1.41957,11.47682 0.23759,1.51094 0.88347,2.40682 2.45927,2.38642 3.39505,-0.044 7.21717,-0.0435 9.64541,-0.50075 1.29321,-0.24351 2.13604,-0.98561 2.04174,-1.91357 -2.60559,-25.64009 -8.0463,-77.11238 -9.23459,-90.16659 -0.12867,-1.41367 -0.81307,-3.44541 -2.22002,-3.63389 -3.953,-0.52955 -9.69745,-0.75875 -14.17537,-0.78806 z m 4.23749,23.53448 c 0,0 4.15409,26.59582 5.56504,47.65135 l -16.86772,1.46141 c 3.03895,-21.16406 11.30268,-49.11276 11.30268,-49.11276 z"
         style="fill:#000000;stroke:none;stroke-width:0.26458332px;stroke-linecap:butt;stroke-linejoin:miter;stroke-opacity:1" />
      <path
         sodipodi:nodetypes="sssssssssssssssccsssssssscccc"
         inkscape:connector-curvature="0"
         d="m 278.14143,-232.56498 c -4.5326,-0.0465 -7.65467,2.58408 -7.98115,7.38028 -0.26444,3.88479 2.42283,8.50778 7.81441,8.6827 5.91263,0.19181 8.79401,-4.25807 8.6827,-8.24856 -0.14027,-5.02902 -4.6635,-7.77488 -8.51596,-7.81442 z m -26.54848,0.16043 c 5.89206,-0.26201 8.62462,3.62317 8.67637,7.43061 0.0764,5.61856 -5.06973,7.80867 -8.89977,7.38029 -3.5381,-0.39573 -7.17,-2.93812 -6.512,-8.46563 0.36461,-3.06289 1.99694,-6.13456 6.7354,-6.34527 z m 2.48866,23.1192 c -7.77919,27.042 -13.9735,53.30042 -18.73155,75.21723 -0.28393,1.30784 0.87586,3.00358 2.15858,3.38526 3.44343,1.02462 6.08165,1.24083 10.38985,1.02395 1.14306,-0.0575 2.56025,-0.92604 2.75099,-2.05454 0.60895,-3.60293 1.69539,-8.11026 1.69539,-8.11026 l 18.54048,-0.21704 c 0,0 1.21478,10.51454 2.42515,18.0601 0.45508,2.83702 0.99703,4.24012 2.84757,4.43913 3.77346,0.4058 7.06034,0.0746 11.79696,-1.13668 1.40818,-0.36011 1.89401,-1.04062 1.37972,-4.13644 -4.19133,-25.23007 -9.28282,-57.1356 -13.92808,-85.84095 -0.27169,-1.6789 -1.83811,-3.51305 -3.53027,-3.68375 -4.33861,-0.43766 -8.90636,-0.30619 -14.11245,0.17856 -1.55063,0.14438 -3.2518,1.37878 -3.68234,2.87543 z m 11.07023,16.06335 c 0,0 2.86398,23.63386 4.77542,42.11113 l -15.21003,0.52402 c 4.06181,-21.663 10.43461,-42.63515 10.43461,-42.63515 z"
         style="fill:#000000;stroke:none;stroke-width:0.26458332px;stroke-linecap:butt;stroke-linejoin:miter;stroke-opacity:1"
         id="path5675" />
    </g>
    <g
       style="fill:#f1c40f;fill-opacity:1"
       transform="matrix(0.38756234,0,0,0.38756234,65.652494,143.21224)"
       id="g857">
      <path
         style="fill:#f1c40f;fill-opacity:1;stroke:none;stroke-width:0.28309402px;stroke-linecap:butt;stroke-linejoin:round;stroke-opacity:1"
         d="m -108.86775,-205.56646 c 0,0 -10.26533,55.72628 -15.40578,83.99335 -0.60673,3.33644 0.41392,3.88764 1.9265,4.01908 4.93357,0.4287 9.21368,-0.25133 13.79545,-0.69802 0.88329,-0.0862 1.63764,-0.28661 1.77985,-1.58833 1.08475,-9.92908 10.035623,-42.2994 9.86774,-61.09481 0,0 10.946555,39.55248 11.490375,56.47421 0.05031,1.56539 1.217439,1.6439 2.128923,1.67291 6.718269,0.21381 11.005856,0.45711 15.66951,-0.22898 0.801774,-0.11795 1.747192,-0.31046 1.928164,-1.44393 2.632651,-16.4888 13.202271,-65.16496 17.780438,-85.50886 0.30094,-1.33728 0.903838,-2.27339 -0.426966,-2.7157 -1.334915,-0.44368 -9.66056,-1.70041 -12.536921,-2.02001 -1.47805,-0.16423 -1.738631,1.91146 -1.968177,2.72648 -1.480773,5.25751 -9.696164,42.05261 -13.342033,60.73305 -0.815762,-12.49005 -10.078364,-50.01483 -10.34007,-51.27065 -0.270683,-1.29891 -0.542248,-2.46852 -2.980433,-2.71855 -2.529507,-0.2594 -16.57438,-1.45857 -17.5883,-1.30433 -1.09355,0.16635 -1.77827,0.97309 -1.77827,0.97309 z"
         id="path841"
         inkscape:connector-curvature="0"
         sodipodi:nodetypes="csssscsssssssscsssc" />
      <path
         id="path843"
         style="fill:#f1c40f;fill-opacity:1;stroke:none;stroke-width:0.26458332px;stroke-linecap:butt;stroke-linejoin:miter;stroke-opacity:1"
         d="m -22.894927,-189.78289 c 0,0 1.507888,24.6011 -0.50758,46.23504 -4.219832,-0.38145 -9.443451,-0.2691 -14.384586,0.22875 4.192018,-18.8282 14.892166,-46.46379 14.892166,-46.46379 z m -5.895477,-20.50284 c -8.525901,21.99066 -21.395788,61.13052 -30.907395,89.99679 -0.731411,2.21971 0.392755,2.42933 1.358566,2.44429 3.759339,0.0582 6.659896,0.0652 9.983985,0.28838 2.318569,0.15566 2.7234,-0.37171 2.979963,-1.58964 0.843327,-4.00334 3.121743,-11.53331 3.121743,-11.53331 5.552721,-0.6987 12.566428,-0.91462 18.965333,-0.34551 0,0 -0.311657,5.70736 -1.086853,11.11399 -0.244237,1.70344 0.04447,2.09926 0.815141,2.09151 6.915481,-0.0695 10.619608,-0.0478 13.767183,-0.63077 1.401738,-0.25962 1.69113,-0.62067 1.717057,-1.30906 1.366239,-36.27481 0.314398,-59.63633 -1.490648,-89.00844 -0.100664,-1.63804 -0.760604,-3.02721 -2.30396,-3.1799 -6.449782,-0.63812 -8.003808,-0.8262 -13.591627,-0.37216 -1.794514,0.14582 -2.862438,0.83175 -3.328488,2.03383 z"
         inkscape:connector-curvature="0"
         sodipodi:nodetypes="ccccsssssccssssssss" />
      <path
         style="fill:#f1c40f;fill-opacity:1;stroke:none;stroke-width:0.27103591px;stroke-linecap:butt;stroke-linejoin:miter;stroke-opacity:1"
         d="m 11.256036,-214.05292 c -4.3555791,23.00586 -7.3802836,36.55366 -11.3420977,66.03486 -1.446222,10.76183 -1.8300134,18.6411 3.0401523,24.6912 4.0124346,4.98456 8.6845034,5.53001 13.6859694,6.06661 7.795036,0.83631 14.233457,-0.20899 20.440461,-8.15195 7.474191,-9.56456 8.399127,-19.54669 10.70835,-30.19867 4.011165,-18.50266 5.068248,-40.33937 7.525726,-53.23137 0.47569,-2.49547 0.282238,-4.5102 -1.179986,-4.56407 -3.147155,-0.11592 -6.566402,0.26271 -10.619961,-0.0662 -0.889593,-0.0722 -2.471959,0.81763 -2.637634,1.65365 -3.198344,16.13949 -6.422229,47.96941 -11.968056,69.4371 -1.505857,5.82911 -2.94851,9.65453 -6.438453,11.14867 -2.567546,1.09923 -5.293841,0.4455 -7.42486,-1.3069 -2.282307,-1.87681 -2.590171,-5.5996 -2.359992,-8.53281 0.694127,-8.84534 2.753055,-18.38724 3.887035,-26.19375 2.242903,-15.44053 6.107387,-29.79068 9.812283,-45.63065 0.245353,-1.04896 0.123721,-2.7761 -1.27467,-2.98653 -2.851128,-0.42904 -8.284053,-0.0341 -11.150723,0.19885 -1.828485,0.14861 -2.703544,0.91802 -2.703544,1.63191 z"
         id="path845"
         inkscape:connector-curvature="0"
         sodipodi:nodetypes="cssssssssssssssssssc" />
      <path
         style="fill:#f1c40f;fill-opacity:1;stroke:none;stroke-width:0.26458332px;stroke-linecap:butt;stroke-linejoin:miter;stroke-opacity:1"
         d="m 81.438564,-213.461 c -10.04691,1.57495 -14.42645,5.28517 -17.2164,12.6154 -3.28587,8.63323 4.51876,24.47033 6.65066,32.3368 2.79308,10.30617 6.08202,20.8339 5.12061,31.46847 -0.25433,2.81312 -0.6317,5.80099 -3.34096,6.59987 -3.52405,1.03913 -5.39381,0.57151 -7.25509,-1.13034 -2.63224,-2.40677 -3.10231,-7.95229 -4.39005,-11.14239 -0.43903,-1.08759 -1.93186,-2.05699 -3.0601,-1.73665 -2.6545,0.7537 -5.54626,2.60133 -7.62049,4.5582 -1.17071,1.10447 -1.50847,1.92392 -1.36667,3.29639 0.72323,6.99982 3.51167,15.61263 9.10406,19.88415 4.52103,3.45322 11.48612,4.24789 16.88814,2.46389 5.64191,-1.86323 10.52602,-5.04107 12.84343,-10.51212 4.17657,-9.86022 0.50825,-23.96286 -1.01863,-34.56175 -1.56166,-10.84026 -4.7258,-17.48458 -7.3452,-28.11889 -1.93768,-7.8667 -2.26108,-11.12101 1.76935,-12.67025 4.48302,-1.72321 6.84278,2.02019 8.21469,5.26103 1.41669,3.34658 1.39546,6.51569 2.5858,8.63694 0.57396,1.02281 0.91129,1.38707 2.59807,0.98812 2.16601,-0.5123 5.15115,-2.62635 7.972416,-4.78058 1.93318,-1.4761 1.57407,-2.22173 0.38015,-7.2283 -2.09076,-8.7674 -6.925166,-18.5149 -21.513786,-16.22799 z"
         id="path847"
         inkscape:connector-curvature="0"
         sodipodi:nodetypes="ssssssssssssssssssssss" />
      <path
         id="path849"
         style="fill:#f1c40f;fill-opacity:1;stroke:none;stroke-width:0.26458332px;stroke-linecap:butt;stroke-linejoin:miter;stroke-opacity:1"
         d="m 118.46847,-204.42393 c -5.32636,-0.5086 -8.74754,-3.77466 -8.46667,-9.26041 0.3678,-7.18348 5.24351,-9.12548 11.00972,-8.36135 4.93461,0.65394 9.39953,3.11427 7.7757,10.21343 -1.23205,5.38632 -5.11194,7.90551 -10.31875,7.40833 z m -10.1595,20.10199 c -3.9651,20.39056 -6.79339,37.2191 -10.413207,64.38037 -0.0915,0.68657 0.57645,1.50816 1.2505,1.66775 4.056257,0.96041 6.305537,1.32191 10.755287,0.8978 0.71834,-0.0685 1.33652,-0.91009 1.42952,-1.62567 3.08017,-23.69767 6.59605,-43.39731 10.81013,-64.86072 0.10865,-0.55335 -0.19765,-1.44309 -0.75724,-1.51279 -3.23089,-0.40244 -7.33498,-0.24065 -11.10045,-0.26331 -0.79105,-0.005 -1.82353,0.54004 -1.97454,1.31657 z"
         inkscape:connector-curvature="0"
         sodipodi:nodetypes="ssssssssssssss" />
      <path
         style="fill:#f1c40f;fill-opacity:1;stroke:none;stroke-width:0.26458332px;stroke-linecap:butt;stroke-linejoin:miter;stroke-opacity:1"
         d="m 137.16762,-215.76903 c -3.31821,24.23422 -10.4144,58.16695 -13.6283,86.95312 -0.0954,0.85499 0.61342,1.9768 1.46033,2.12805 4.74336,0.84711 9.67577,0.24106 11.99723,0.19867 0.88918,-0.0162 2.09644,-0.61905 2.20523,-1.5017 0.76441,-6.20183 2.98565,-25.0569 2.98565,-25.0569 l 4.07834,-5.04067 c 0,0 9.90536,24.09625 15.85341,41.55768 0.70461,2.06848 2.73278,2.17408 3.81981,1.83961 4.35271,-1.3393 7.26732,-2.57984 11.47061,-4.63467 0.6465,-0.31605 1.22324,-1.2595 0.96497,-1.93117 -5.32616,-13.85127 -20.53191,-50.2365 -20.53191,-50.2365 0,0 19.02167,-25.20119 28.37768,-36.93293 0.67115,-0.84157 0.70808,-1.94633 -0.59588,-3.08518 -2.49984,-2.1833 -5.54923,-5.47864 -8.35934,-7.84678 -0.73429,-0.6188 -2.34462,-0.64235 -2.8765,0.15715 -5.53168,8.31499 -27.1943,37.7545 -27.1943,37.7545 0,0 3.73025,-23.4688 5.76076,-32.98559 0.30681,-1.43797 -0.39491,-2.25382 -1.27129,-2.30684 -3.69012,-0.22324 -7.98757,-0.85923 -11.8737,-0.85931 -1.65235,-4e-5 -2.45851,0.48354 -2.6428,1.82946 z"
         id="path851"
         inkscape:connector-curvature="0"
         sodipodi:nodetypes="sssssccsssscsssscssss" />
      <path
         style="fill:#f1c40f;fill-opacity:1;stroke:none;stroke-width:0.26458332px;stroke-linecap:butt;stroke-linejoin:miter;stroke-opacity:1"
         d="m 205.47284,-220.2703 c -1.93373,-0.0127 -2.49682,1.4017 -3.02977,2.62774 -4.39705,10.11524 -14.09611,48.57483 -22.58655,89.89689 -0.22935,1.12805 0.0385,3.04711 0.88468,3.34243 4.27503,1.49207 6.51955,1.36559 11.27975,1.80449 1.27053,0.11714 2.09653,-0.43678 2.17043,-1.27227 0.35391,-4.00274 2.00814,-12.04113 2.00814,-12.04113 l 19.33731,-1.21853 c 0,0 0.82076,7.66875 1.41957,11.47682 0.23759,1.51094 0.88347,2.40682 2.45927,2.38642 3.39505,-0.044 7.21717,-0.0435 9.64541,-0.50075 1.29321,-0.24351 2.13604,-0.98561 2.04174,-1.91357 -2.60559,-25.64009 -8.0463,-77.11238 -9.23459,-90.16659 -0.12867,-1.41367 -0.81307,-3.44541 -2.22002,-3.63389 -3.953,-0.52955 -9.69745,-0.75875 -14.17537,-0.78806 z m 4.23749,23.53448 c 0,0 4.15409,26.59582 5.56504,47.65135 l -16.86772,1.46141 c 3.03895,-21.16406 11.30268,-49.11276 11.30268,-49.11276 z"
         id="path853"
         inkscape:connector-curvature="0"
         sodipodi:nodetypes="cccccccccccscsccccc" />
      <path
         id="path855"
         style="fill:#f1c40f;fill-opacity:1;stroke:none;stroke-width:0.26458332px;stroke-linecap:butt;stroke-linejoin:miter;stroke-opacity:1"
         d="m 278.14143,-232.56498 c -4.5326,-0.0465 -7.65467,2.58408 -7.98115,7.38028 -0.26444,3.88479 2.42283,8.50778 7.81441,8.6827 5.91263,0.19181 8.79401,-4.25807 8.6827,-8.24856 -0.14027,-5.02902 -4.6635,-7.77488 -8.51596,-7.81442 z m -26.54848,0.16043 c 5.89206,-0.26201 8.62462,3.62317 8.67637,7.43061 0.0764,5.61856 -5.06973,7.80867 -8.89977,7.38029 -3.5381,-0.39573 -7.17,-2.93812 -6.512,-8.46563 0.36461,-3.06289 1.99694,-6.13456 6.7354,-6.34527 z m 2.48866,23.1192 c -7.77919,27.042 -13.9735,53.30042 -18.73155,75.21723 -0.28393,1.30784 0.87586,3.00358 2.15858,3.38526 3.44343,1.02462 6.08165,1.24083 10.38985,1.02395 1.14306,-0.0575 2.56025,-0.92604 2.75099,-2.05454 0.60895,-3.60293 1.69539,-8.11026 1.69539,-8.11026 l 18.54048,-0.21704 c 0,0 1.21478,10.51454 2.42515,18.0601 0.45508,2.83702 0.99703,4.24012 2.84757,4.43913 3.77346,0.4058 7.06034,0.0746 11.79696,-1.13668 1.40818,-0.36011 1.89401,-1.04062 1.37972,-4.13644 -4.19133,-25.23007 -9.28282,-57.1356 -13.92808,-85.84095 -0.27169,-1.6789 -1.83811,-3.51305 -3.53027,-3.68375 -4.33861,-0.43766 -8.90636,-0.30619 -14.11245,0.17856 -1.55063,0.14438 -3.2518,1.37878 -3.68234,2.87543 z m 11.07023,16.06335 c 0,0 2.86398,23.63386 4.77542,42.11113 l -15.21003,0.52402 c 4.06181,-21.663 10.43461,-42.63515 10.43461,-42.63515 z"
         inkscape:connector-curvature="0"
         sodipodi:nodetypes="sssssssssssssssccsssssssscccc" />
    </g>
    <g
       id="g875"
       transform="matrix(0.38756234,0,0,0.38756234,61.848977,207.29216)"
       style="fill:#ffffff">
      <path
         sodipodi:nodetypes="csssscsssssssscsssc"
         inkscape:connector-curvature="0"
         id="path859"
         d="m -108.86775,-205.56646 c 0,0 -10.26533,55.72628 -15.40578,83.99335 -0.60673,3.33644 0.41392,3.88764 1.9265,4.01908 4.93357,0.4287 9.21368,-0.25133 13.79545,-0.69802 0.88329,-0.0862 1.63764,-0.28661 1.77985,-1.58833 1.08475,-9.92908 10.035623,-42.2994 9.86774,-61.09481 0,0 10.946555,39.55248 11.490375,56.47421 0.05031,1.56539 1.217439,1.6439 2.128923,1.67291 6.718269,0.21381 11.005856,0.45711 15.66951,-0.22898 0.801774,-0.11795 1.747192,-0.31046 1.928164,-1.44393 2.632651,-16.4888 13.202271,-65.16496 17.780438,-85.50886 0.30094,-1.33728 0.903838,-2.27339 -0.426966,-2.7157 -1.334915,-0.44368 -9.66056,-1.70041 -12.536921,-2.02001 -1.47805,-0.16423 -1.738631,1.91146 -1.968177,2.72648 -1.480773,5.25751 -9.696164,42.05261 -13.342033,60.73305 -0.815762,-12.49005 -10.078364,-50.01483 -10.34007,-51.27065 -0.270683,-1.29891 -0.542248,-2.46852 -2.980433,-2.71855 -2.529507,-0.2594 -16.57438,-1.45857 -17.5883,-1.30433 -1.09355,0.16635 -1.77827,0.97309 -1.77827,0.97309 z"
         style="fill:#ffffff;stroke:none;stroke-width:0.28309402px;stroke-linecap:butt;stroke-linejoin:round;stroke-opacity:1" />
      <path
         sodipodi:nodetypes="ccccsssssccssssssss"
         inkscape:connector-curvature="0"
         d="m -22.894927,-189.78289 c 0,0 1.507888,24.6011 -0.50758,46.23504 -4.219832,-0.38145 -9.443451,-0.2691 -14.384586,0.22875 4.192018,-18.8282 14.892166,-46.46379 14.892166,-46.46379 z m -5.895477,-20.50284 c -8.525901,21.99066 -21.395788,61.13052 -30.907395,89.99679 -0.731411,2.21971 0.392755,2.42933 1.358566,2.44429 3.759339,0.0582 6.659896,0.0652 9.983985,0.28838 2.318569,0.15566 2.7234,-0.37171 2.979963,-1.58964 0.843327,-4.00334 3.121743,-11.53331 3.121743,-11.53331 5.552721,-0.6987 12.566428,-0.91462 18.965333,-0.34551 0,0 -0.311657,5.70736 -1.086853,11.11399 -0.244237,1.70344 0.04447,2.09926 0.815141,2.09151 6.915481,-0.0695 10.619608,-0.0478 13.767183,-0.63077 1.401738,-0.25962 1.69113,-0.62067 1.717057,-1.30906 1.366239,-36.27481 0.314398,-59.63633 -1.490648,-89.00844 -0.100664,-1.63804 -0.760604,-3.02721 -2.30396,-3.1799 -6.449782,-0.63812 -8.003808,-0.8262 -13.591627,-0.37216 -1.794514,0.14582 -2.862438,0.83175 -3.328488,2.03383 z"
         style="fill:#ffffff;stroke:none;stroke-width:0.26458332px;stroke-linecap:butt;stroke-linejoin:miter;stroke-opacity:1"
         id="path861" />
      <path
         sodipodi:nodetypes="cssssssssssssssssssc"
         inkscape:connector-curvature="0"
         id="path863"
         d="m 11.256036,-214.05292 c -4.3555791,23.00586 -7.3802836,36.55366 -11.3420977,66.03486 -1.446222,10.76183 -1.8300134,18.6411 3.0401523,24.6912 4.0124346,4.98456 8.6845034,5.53001 13.6859694,6.06661 7.795036,0.83631 14.233457,-0.20899 20.440461,-8.15195 7.474191,-9.56456 8.399127,-19.54669 10.70835,-30.19867 4.011165,-18.50266 5.068248,-40.33937 7.525726,-53.23137 0.47569,-2.49547 0.282238,-4.5102 -1.179986,-4.56407 -3.147155,-0.11592 -6.566402,0.26271 -10.619961,-0.0662 -0.889593,-0.0722 -2.471959,0.81763 -2.637634,1.65365 -3.198344,16.13949 -6.422229,47.96941 -11.968056,69.4371 -1.505857,5.82911 -2.94851,9.65453 -6.438453,11.14867 -2.567546,1.09923 -5.293841,0.4455 -7.42486,-1.3069 -2.282307,-1.87681 -2.590171,-5.5996 -2.359992,-8.53281 0.694127,-8.84534 2.753055,-18.38724 3.887035,-26.19375 2.242903,-15.44053 6.107387,-29.79068 9.812283,-45.63065 0.245353,-1.04896 0.123721,-2.7761 -1.27467,-2.98653 -2.851128,-0.42904 -8.284053,-0.0341 -11.150723,0.19885 -1.828485,0.14861 -2.703544,0.91802 -2.703544,1.63191 z"
         style="fill:#ffffff;stroke:none;stroke-width:0.27103591px;stroke-linecap:butt;stroke-linejoin:miter;stroke-opacity:1" />
      <path
         sodipodi:nodetypes="ssssssssssssssssssssss"
         inkscape:connector-curvature="0"
         id="path865"
         d="m 81.438564,-213.461 c -10.04691,1.57495 -14.42645,5.28517 -17.2164,12.6154 -3.28587,8.63323 4.51876,24.47033 6.65066,32.3368 2.79308,10.30617 6.08202,20.8339 5.12061,31.46847 -0.25433,2.81312 -0.6317,5.80099 -3.34096,6.59987 -3.52405,1.03913 -5.39381,0.57151 -7.25509,-1.13034 -2.63224,-2.40677 -3.10231,-7.95229 -4.39005,-11.14239 -0.43903,-1.08759 -1.93186,-2.05699 -3.0601,-1.73665 -2.6545,0.7537 -5.54626,2.60133 -7.62049,4.5582 -1.17071,1.10447 -1.50847,1.92392 -1.36667,3.29639 0.72323,6.99982 3.51167,15.61263 9.10406,19.88415 4.52103,3.45322 11.48612,4.24789 16.88814,2.46389 5.64191,-1.86323 10.52602,-5.04107 12.84343,-10.51212 4.17657,-9.86022 0.50825,-23.96286 -1.01863,-34.56175 -1.56166,-10.84026 -4.7258,-17.48458 -7.3452,-28.11889 -1.93768,-7.8667 -2.26108,-11.12101 1.76935,-12.67025 4.48302,-1.72321 6.84278,2.02019 8.21469,5.26103 1.41669,3.34658 1.39546,6.51569 2.5858,8.63694 0.57396,1.02281 0.91129,1.38707 2.59807,0.98812 2.16601,-0.5123 5.15115,-2.62635 7.972416,-4.78058 1.93318,-1.4761 1.57407,-2.22173 0.38015,-7.2283 -2.09076,-8.7674 -6.925166,-18.5149 -21.513786,-16.22799 z"
         style="fill:#ffffff;stroke:none;stroke-width:0.26458332px;stroke-linecap:butt;stroke-linejoin:miter;stroke-opacity:1" />
      <path
         sodipodi:nodetypes="ssssssssssssss"
         inkscape:connector-curvature="0"
         d="m 118.46847,-204.42393 c -5.32636,-0.5086 -8.74754,-3.77466 -8.46667,-9.26041 0.3678,-7.18348 5.24351,-9.12548 11.00972,-8.36135 4.93461,0.65394 9.39953,3.11427 7.7757,10.21343 -1.23205,5.38632 -5.11194,7.90551 -10.31875,7.40833 z m -10.1595,20.10199 c -3.9651,20.39056 -6.79339,37.2191 -10.413207,64.38037 -0.0915,0.68657 0.57645,1.50816 1.2505,1.66775 4.056257,0.96041 6.305537,1.32191 10.755287,0.8978 0.71834,-0.0685 1.33652,-0.91009 1.42952,-1.62567 3.08017,-23.69767 6.59605,-43.39731 10.81013,-64.86072 0.10865,-0.55335 -0.19765,-1.44309 -0.75724,-1.51279 -3.23089,-0.40244 -7.33498,-0.24065 -11.10045,-0.26331 -0.79105,-0.005 -1.82353,0.54004 -1.97454,1.31657 z"
         style="fill:#ffffff;stroke:none;stroke-width:0.26458332px;stroke-linecap:butt;stroke-linejoin:miter;stroke-opacity:1"
         id="path867" />
      <path
         sodipodi:nodetypes="sssssccsssscsssscssss"
         inkscape:connector-curvature="0"
         id="path869"
         d="m 137.16762,-215.76903 c -3.31821,24.23422 -10.4144,58.16695 -13.6283,86.95312 -0.0954,0.85499 0.61342,1.9768 1.46033,2.12805 4.74336,0.84711 9.67577,0.24106 11.99723,0.19867 0.88918,-0.0162 2.09644,-0.61905 2.20523,-1.5017 0.76441,-6.20183 2.98565,-25.0569 2.98565,-25.0569 l 4.07834,-5.04067 c 0,0 9.90536,24.09625 15.85341,41.55768 0.70461,2.06848 2.73278,2.17408 3.81981,1.83961 4.35271,-1.3393 7.26732,-2.57984 11.47061,-4.63467 0.6465,-0.31605 1.22324,-1.2595 0.96497,-1.93117 -5.32616,-13.85127 -20.53191,-50.2365 -20.53191,-50.2365 0,0 19.02167,-25.20119 28.37768,-36.93293 0.67115,-0.84157 0.70808,-1.94633 -0.59588,-3.08518 -2.49984,-2.1833 -5.54923,-5.47864 -8.35934,-7.84678 -0.73429,-0.6188 -2.34462,-0.64235 -2.8765,0.15715 -5.53168,8.31499 -27.1943,37.7545 -27.1943,37.7545 0,0 3.73025,-23.4688 5.76076,-32.98559 0.30681,-1.43797 -0.39491,-2.25382 -1.27129,-2.30684 -3.69012,-0.22324 -7.98757,-0.85923 -11.8737,-0.85931 -1.65235,-4e-5 -2.45851,0.48354 -2.6428,1.82946 z"
         style="fill:#ffffff;stroke:none;stroke-width:0.26458332px;stroke-linecap:butt;stroke-linejoin:miter;stroke-opacity:1" />
      <path
         sodipodi:nodetypes="cccccccccccscsccccc"
         inkscape:connector-curvature="0"
         id="path871"
         d="m 205.47284,-220.2703 c -1.93373,-0.0127 -2.49682,1.4017 -3.02977,2.62774 -4.39705,10.11524 -14.09611,48.57483 -22.58655,89.89689 -0.22935,1.12805 0.0385,3.04711 0.88468,3.34243 4.27503,1.49207 6.51955,1.36559 11.27975,1.80449 1.27053,0.11714 2.09653,-0.43678 2.17043,-1.27227 0.35391,-4.00274 2.00814,-12.04113 2.00814,-12.04113 l 19.33731,-1.21853 c 0,0 0.82076,7.66875 1.41957,11.47682 0.23759,1.51094 0.88347,2.40682 2.45927,2.38642 3.39505,-0.044 7.21717,-0.0435 9.64541,-0.50075 1.29321,-0.24351 2.13604,-0.98561 2.04174,-1.91357 -2.60559,-25.64009 -8.0463,-77.11238 -9.23459,-90.16659 -0.12867,-1.41367 -0.81307,-3.44541 -2.22002,-3.63389 -3.953,-0.52955 -9.69745,-0.75875 -14.17537,-0.78806 z m 4.23749,23.53448 c 0,0 4.15409,26.59582 5.56504,47.65135 l -16.86772,1.46141 c 3.03895,-21.16406 11.30268,-49.11276 11.30268,-49.11276 z"
         style="fill:#ffffff;stroke:none;stroke-width:0.26458332px;stroke-linecap:butt;stroke-linejoin:miter;stroke-opacity:1" />
      <path
         sodipodi:nodetypes="sssssssssssssssccsssssssscccc"
         inkscape:connector-curvature="0"
         d="m 278.14143,-232.56498 c -4.5326,-0.0465 -7.65467,2.58408 -7.98115,7.38028 -0.26444,3.88479 2.42283,8.50778 7.81441,8.6827 5.91263,0.19181 8.79401,-4.25807 8.6827,-8.24856 -0.14027,-5.02902 -4.6635,-7.77488 -8.51596,-7.81442 z m -26.54848,0.16043 c 5.89206,-0.26201 8.62462,3.62317 8.67637,7.43061 0.0764,5.61856 -5.06973,7.80867 -8.89977,7.38029 -3.5381,-0.39573 -7.17,-2.93812 -6.512,-8.46563 0.36461,-3.06289 1.99694,-6.13456 6.7354,-6.34527 z m 2.48866,23.1192 c -7.77919,27.042 -13.9735,53.30042 -18.73155,75.21723 -0.28393,1.30784 0.87586,3.00358 2.15858,3.38526 3.44343,1.02462 6.08165,1.24083 10.38985,1.02395 1.14306,-0.0575 2.56025,-0.92604 2.75099,-2.05454 0.60895,-3.60293 1.69539,-8.11026 1.69539,-8.11026 l 18.54048,-0.21704 c 0,0 1.21478,10.51454 2.42515,18.0601 0.45508,2.83702 0.99703,4.24012 2.84757,4.43913 3.77346,0.4058 7.06034,0.0746 11.79696,-1.13668 1.40818,-0.36011 1.89401,-1.04062 1.37972,-4.13644 -4.19133,-25.23007 -9.28282,-57.1356 -13.92808,-85.84095 -0.27169,-1.6789 -1.83811,-3.51305 -3.53027,-3.68375 -4.33861,-0.43766 -8.90636,-0.30619 -14.11245,0.17856 -1.55063,0.14438 -3.2518,1.37878 -3.68234,2.87543 z m 11.07023,16.06335 c 0,0 2.86398,23.63386 4.77542,42.11113 l -15.21003,0.52402 c 4.06181,-21.663 10.43461,-42.63515 10.43461,-42.63515 z"
         style="fill:#ffffff;stroke:none;stroke-width:0.26458332px;stroke-linecap:butt;stroke-linejoin:miter;stroke-opacity:1"
         id="path873" />
      <path
         style="fill:#ffffff;stroke:none;stroke-width:0.26458332px;stroke-linecap:butt;stroke-linejoin:miter;stroke-opacity:1"
         d="m 81.438564,-213.461 c -10.04691,1.57495 -14.42645,5.28517 -17.2164,12.6154 -3.28587,8.63323 4.51876,24.47033 6.65066,32.3368 2.79308,10.30617 6.08202,20.8339 5.12061,31.46847 -0.25433,2.81312 -0.6317,5.80099 -3.34096,6.59987 -3.52405,1.03913 -5.39381,0.57151 -7.25509,-1.13034 -2.63224,-2.40677 -3.10231,-7.95229 -4.39005,-11.14239 -0.43903,-1.08759 -1.93186,-2.05699 -3.0601,-1.73665 -2.6545,0.7537 -5.54626,2.60133 -7.62049,4.5582 -1.17071,1.10447 -1.50847,1.92392 -1.36667,3.29639 0.72323,6.99982 3.51167,15.61263 9.10406,19.88415 4.52103,3.45322 11.48612,4.24789 16.88814,2.46389 5.64191,-1.86323 10.52602,-5.04107 12.84343,-10.51212 4.17657,-9.86022 0.50825,-23.96286 -1.01863,-34.56175 -1.56166,-10.84026 -4.7258,-17.48458 -7.3452,-28.11889 -1.93768,-7.8667 -2.26108,-11.12101 1.76935,-12.67025 4.48302,-1.72321 6.84278,2.02019 8.21469,5.26103 1.41669,3.34658 1.39546,6.51569 2.5858,8.63694 0.57396,1.02281 0.91129,1.38707 2.59807,0.98812 2.16601,-0.5123 5.15115,-2.62635 7.972416,-4.78058 1.93318,-1.4761 1.57407,-2.22173 0.38015,-7.2283 -2.09076,-8.7674 -6.925166,-18.5149 -21.513786,-16.22799 z"
         id="path879"
         inkscape:connector-curvature="0"
         sodipodi:nodetypes="ssssssssssssssssssssss" />
    </g>
    <path
       style="fill:none;stroke:#f1c40f;stroke-width:5.56500006;stroke-linecap:butt;stroke-linejoin:miter;stroke-miterlimit:4;stroke-dasharray:none;stroke-opacity:1"
       d="M 16.735477,36.773312 174.58145,36.012608"
       id="path877"
       inkscape:connector-curvature="0" />
    <g
       style="fill:#f7db6e;fill-opacity:1"
       transform="matrix(0.38756234,0,0,0.38756234,67.669811,265.50053)"
       id="g901">
      <path
         style="fill:#f7db6e;fill-opacity:1;stroke:none;stroke-width:0.28309402px;stroke-linecap:butt;stroke-linejoin:round;stroke-opacity:1"
         d="m -108.86775,-205.56646 c 0,0 -10.26533,55.72628 -15.40578,83.99335 -0.60673,3.33644 0.41392,3.88764 1.9265,4.01908 4.93357,0.4287 9.21368,-0.25133 13.79545,-0.69802 0.88329,-0.0862 1.63764,-0.28661 1.77985,-1.58833 1.08475,-9.92908 10.035623,-42.2994 9.86774,-61.09481 0,0 10.946555,39.55248 11.490375,56.47421 0.05031,1.56539 1.217439,1.6439 2.128923,1.67291 6.718269,0.21381 11.005856,0.45711 15.66951,-0.22898 0.801774,-0.11795 1.747192,-0.31046 1.928164,-1.44393 2.632651,-16.4888 13.202271,-65.16496 17.780438,-85.50886 0.30094,-1.33728 0.903838,-2.27339 -0.426966,-2.7157 -1.334915,-0.44368 -9.66056,-1.70041 -12.536921,-2.02001 -1.47805,-0.16423 -1.738631,1.91146 -1.968177,2.72648 -1.480773,5.25751 -9.696164,42.05261 -13.342033,60.73305 -0.815762,-12.49005 -10.078364,-50.01483 -10.34007,-51.27065 -0.270683,-1.29891 -0.542248,-2.46852 -2.980433,-2.71855 -2.529507,-0.2594 -16.57438,-1.45857 -17.5883,-1.30433 -1.09355,0.16635 -1.77827,0.97309 -1.77827,0.97309 z"
         id="path883"
         inkscape:connector-curvature="0"
         sodipodi:nodetypes="csssscsssssssscsssc" />
      <path
         id="path885"
         style="fill:#f7db6e;fill-opacity:1;stroke:none;stroke-width:0.26458332px;stroke-linecap:butt;stroke-linejoin:miter;stroke-opacity:1"
         d="m -22.894927,-189.78289 c 0,0 1.507888,24.6011 -0.50758,46.23504 -4.219832,-0.38145 -9.443451,-0.2691 -14.384586,0.22875 4.192018,-18.8282 14.892166,-46.46379 14.892166,-46.46379 z m -5.895477,-20.50284 c -8.525901,21.99066 -21.395788,61.13052 -30.907395,89.99679 -0.731411,2.21971 0.392755,2.42933 1.358566,2.44429 3.759339,0.0582 6.659896,0.0652 9.983985,0.28838 2.318569,0.15566 2.7234,-0.37171 2.979963,-1.58964 0.843327,-4.00334 3.121743,-11.53331 3.121743,-11.53331 5.552721,-0.6987 12.566428,-0.91462 18.965333,-0.34551 0,0 -0.311657,5.70736 -1.086853,11.11399 -0.244237,1.70344 0.04447,2.09926 0.815141,2.09151 6.915481,-0.0695 10.619608,-0.0478 13.767183,-0.63077 1.401738,-0.25962 1.69113,-0.62067 1.717057,-1.30906 1.366239,-36.27481 0.314398,-59.63633 -1.490648,-89.00844 -0.100664,-1.63804 -0.760604,-3.02721 -2.30396,-3.1799 -6.449782,-0.63812 -8.003808,-0.8262 -13.591627,-0.37216 -1.794514,0.14582 -2.862438,0.83175 -3.328488,2.03383 z"
         inkscape:connector-curvature="0"
         sodipodi:nodetypes="ccccsssssccssssssss" />
      <path
         style="fill:#f7db6e;fill-opacity:1;stroke:none;stroke-width:0.27103591px;stroke-linecap:butt;stroke-linejoin:miter;stroke-opacity:1"
         d="m 11.256036,-214.05292 c -4.3555791,23.00586 -7.3802836,36.55366 -11.3420977,66.03486 -1.446222,10.76183 -1.8300134,18.6411 3.0401523,24.6912 4.0124346,4.98456 8.6845034,5.53001 13.6859694,6.06661 7.795036,0.83631 14.233457,-0.20899 20.440461,-8.15195 7.474191,-9.56456 8.399127,-19.54669 10.70835,-30.19867 4.011165,-18.50266 5.068248,-40.33937 7.525726,-53.23137 0.47569,-2.49547 0.282238,-4.5102 -1.179986,-4.56407 -3.147155,-0.11592 -6.566402,0.26271 -10.619961,-0.0662 -0.889593,-0.0722 -2.471959,0.81763 -2.637634,1.65365 -3.198344,16.13949 -6.422229,47.96941 -11.968056,69.4371 -1.505857,5.82911 -2.94851,9.65453 -6.438453,11.14867 -2.567546,1.09923 -5.293841,0.4455 -7.42486,-1.3069 -2.282307,-1.87681 -2.590171,-5.5996 -2.359992,-8.53281 0.694127,-8.84534 2.753055,-18.38724 3.887035,-26.19375 2.242903,-15.44053 6.107387,-29.79068 9.812283,-45.63065 0.245353,-1.04896 0.123721,-2.7761 -1.27467,-2.98653 -2.851128,-0.42904 -8.284053,-0.0341 -11.150723,0.19885 -1.828485,0.14861 -2.703544,0.91802 -2.703544,1.63191 z"
         id="path887"
         inkscape:connector-curvature="0"
         sodipodi:nodetypes="cssssssssssssssssssc" />
      <path
         style="fill:#f7db6e;fill-opacity:1;stroke:none;stroke-width:0.26458332px;stroke-linecap:butt;stroke-linejoin:miter;stroke-opacity:1"
         d="m 81.438564,-213.461 c -10.04691,1.57495 -14.42645,5.28517 -17.2164,12.6154 -3.28587,8.63323 4.51876,24.47033 6.65066,32.3368 2.79308,10.30617 6.08202,20.8339 5.12061,31.46847 -0.25433,2.81312 -0.6317,5.80099 -3.34096,6.59987 -3.52405,1.03913 -5.39381,0.57151 -7.25509,-1.13034 -2.63224,-2.40677 -3.10231,-7.95229 -4.39005,-11.14239 -0.43903,-1.08759 -1.93186,-2.05699 -3.0601,-1.73665 -2.6545,0.7537 -5.54626,2.60133 -7.62049,4.5582 -1.17071,1.10447 -1.50847,1.92392 -1.36667,3.29639 0.72323,6.99982 3.51167,15.61263 9.10406,19.88415 4.52103,3.45322 11.48612,4.24789 16.88814,2.46389 5.64191,-1.86323 10.52602,-5.04107 12.84343,-10.51212 4.17657,-9.86022 0.50825,-23.96286 -1.01863,-34.56175 -1.56166,-10.84026 -4.7258,-17.48458 -7.3452,-28.11889 -1.93768,-7.8667 -2.26108,-11.12101 1.76935,-12.67025 4.48302,-1.72321 6.84278,2.02019 8.21469,5.26103 1.41669,3.34658 1.39546,6.51569 2.5858,8.63694 0.57396,1.02281 0.91129,1.38707 2.59807,0.98812 2.16601,-0.5123 5.15115,-2.62635 7.972416,-4.78058 1.93318,-1.4761 1.57407,-2.22173 0.38015,-7.2283 -2.09076,-8.7674 -6.925166,-18.5149 -21.513786,-16.22799 z"
         id="path889"
         inkscape:connector-curvature="0"
         sodipodi:nodetypes="ssssssssssssssssssssss" />
      <path
         id="path891"
         style="fill:#f7db6e;fill-opacity:1;stroke:none;stroke-width:0.26458332px;stroke-linecap:butt;stroke-linejoin:miter;stroke-opacity:1"
         d="m 118.46847,-204.42393 c -5.32636,-0.5086 -8.74754,-3.77466 -8.46667,-9.26041 0.3678,-7.18348 5.24351,-9.12548 11.00972,-8.36135 4.93461,0.65394 9.39953,3.11427 7.7757,10.21343 -1.23205,5.38632 -5.11194,7.90551 -10.31875,7.40833 z m -10.1595,20.10199 c -3.9651,20.39056 -6.79339,37.2191 -10.413207,64.38037 -0.0915,0.68657 0.57645,1.50816 1.2505,1.66775 4.056257,0.96041 6.305537,1.32191 10.755287,0.8978 0.71834,-0.0685 1.33652,-0.91009 1.42952,-1.62567 3.08017,-23.69767 6.59605,-43.39731 10.81013,-64.86072 0.10865,-0.55335 -0.19765,-1.44309 -0.75724,-1.51279 -3.23089,-0.40244 -7.33498,-0.24065 -11.10045,-0.26331 -0.79105,-0.005 -1.82353,0.54004 -1.97454,1.31657 z"
         inkscape:connector-curvature="0"
         sodipodi:nodetypes="ssssssssssssss" />
      <path
         style="fill:#f7db6e;fill-opacity:1;stroke:none;stroke-width:0.26458332px;stroke-linecap:butt;stroke-linejoin:miter;stroke-opacity:1"
         d="m 137.16762,-215.76903 c -3.31821,24.23422 -10.4144,58.16695 -13.6283,86.95312 -0.0954,0.85499 0.61342,1.9768 1.46033,2.12805 4.74336,0.84711 9.67577,0.24106 11.99723,0.19867 0.88918,-0.0162 2.09644,-0.61905 2.20523,-1.5017 0.76441,-6.20183 2.98565,-25.0569 2.98565,-25.0569 l 4.07834,-5.04067 c 0,0 9.90536,24.09625 15.85341,41.55768 0.70461,2.06848 2.73278,2.17408 3.81981,1.83961 4.35271,-1.3393 7.26732,-2.57984 11.47061,-4.63467 0.6465,-0.31605 1.22324,-1.2595 0.96497,-1.93117 -5.32616,-13.85127 -20.53191,-50.2365 -20.53191,-50.2365 0,0 19.02167,-25.20119 28.37768,-36.93293 0.67115,-0.84157 0.70808,-1.94633 -0.59588,-3.08518 -2.49984,-2.1833 -5.54923,-5.47864 -8.35934,-7.84678 -0.73429,-0.6188 -2.34462,-0.64235 -2.8765,0.15715 -5.53168,8.31499 -27.1943,37.7545 -27.1943,37.7545 0,0 3.73025,-23.4688 5.76076,-32.98559 0.30681,-1.43797 -0.39491,-2.25382 -1.27129,-2.30684 -3.69012,-0.22324 -7.98757,-0.85923 -11.8737,-0.85931 -1.65235,-4e-5 -2.45851,0.48354 -2.6428,1.82946 z"
         id="path893"
         inkscape:connector-curvature="0"
         sodipodi:nodetypes="sssssccsssscsssscssss" />
      <path
         style="fill:#f7db6e;fill-opacity:1;stroke:none;stroke-width:0.26458332px;stroke-linecap:butt;stroke-linejoin:miter;stroke-opacity:1"
         d="m 205.47284,-220.2703 c -1.93373,-0.0127 -2.49682,1.4017 -3.02977,2.62774 -4.39705,10.11524 -14.09611,48.57483 -22.58655,89.89689 -0.22935,1.12805 0.0385,3.04711 0.88468,3.34243 4.27503,1.49207 6.51955,1.36559 11.27975,1.80449 1.27053,0.11714 2.09653,-0.43678 2.17043,-1.27227 0.35391,-4.00274 2.00814,-12.04113 2.00814,-12.04113 l 19.33731,-1.21853 c 0,0 0.82076,7.66875 1.41957,11.47682 0.23759,1.51094 0.88347,2.40682 2.45927,2.38642 3.39505,-0.044 7.21717,-0.0435 9.64541,-0.50075 1.29321,-0.24351 2.13604,-0.98561 2.04174,-1.91357 -2.60559,-25.64009 -8.0463,-77.11238 -9.23459,-90.16659 -0.12867,-1.41367 -0.81307,-3.44541 -2.22002,-3.63389 -3.953,-0.52955 -9.69745,-0.75875 -14.17537,-0.78806 z m 4.23749,23.53448 c 0,0 4.15409,26.59582 5.56504,47.65135 l -16.86772,1.46141 c 3.03895,-21.16406 11.30268,-49.11276 11.30268,-49.11276 z"
         id="path895"
         inkscape:connector-curvature="0"
         sodipodi:nodetypes="cccccccccccscsccccc" />
      <path
         id="path897"
         style="fill:#f7db6e;fill-opacity:1;stroke:none;stroke-width:0.26458332px;stroke-linecap:butt;stroke-linejoin:miter;stroke-opacity:1"
         d="m 278.14143,-232.56498 c -4.5326,-0.0465 -7.65467,2.58408 -7.98115,7.38028 -0.26444,3.88479 2.42283,8.50778 7.81441,8.6827 5.91263,0.19181 8.79401,-4.25807 8.6827,-8.24856 -0.14027,-5.02902 -4.6635,-7.77488 -8.51596,-7.81442 z m -26.54848,0.16043 c 5.89206,-0.26201 8.62462,3.62317 8.67637,7.43061 0.0764,5.61856 -5.06973,7.80867 -8.89977,7.38029 -3.5381,-0.39573 -7.17,-2.93812 -6.512,-8.46563 0.36461,-3.06289 1.99694,-6.13456 6.7354,-6.34527 z m 2.48866,23.1192 c -7.77919,27.042 -13.9735,53.30042 -18.73155,75.21723 -0.28393,1.30784 0.87586,3.00358 2.15858,3.38526 3.44343,1.02462 6.08165,1.24083 10.38985,1.02395 1.14306,-0.0575 2.56025,-0.92604 2.75099,-2.05454 0.60895,-3.60293 1.69539,-8.11026 1.69539,-8.11026 l 18.54048,-0.21704 c 0,0 1.21478,10.51454 2.42515,18.0601 0.45508,2.83702 0.99703,4.24012 2.84757,4.43913 3.77346,0.4058 7.06034,0.0746 11.79696,-1.13668 1.40818,-0.36011 1.89401,-1.04062 1.37972,-4.13644 -4.19133,-25.23007 -9.28282,-57.1356 -13.92808,-85.84095 -0.27169,-1.6789 -1.83811,-3.51305 -3.53027,-3.68375 -4.33861,-0.43766 -8.90636,-0.30619 -14.11245,0.17856 -1.55063,0.14438 -3.2518,1.37878 -3.68234,2.87543 z m 11.07023,16.06335 c 0,0 2.86398,23.63386 4.77542,42.11113 l -15.21003,0.52402 c 4.06181,-21.663 10.43461,-42.63515 10.43461,-42.63515 z"
         inkscape:connector-curvature="0"
         sodipodi:nodetypes="sssssssssssssssccsssssssscccc" />
      <path
         sodipodi:nodetypes="ssssssssssssssssssssss"
         inkscape:connector-curvature="0"
         id="path899"
         d="m 81.438564,-213.461 c -10.04691,1.57495 -14.42645,5.28517 -17.2164,12.6154 -3.28587,8.63323 4.51876,24.47033 6.65066,32.3368 2.79308,10.30617 6.08202,20.8339 5.12061,31.46847 -0.25433,2.81312 -0.6317,5.80099 -3.34096,6.59987 -3.52405,1.03913 -5.39381,0.57151 -7.25509,-1.13034 -2.63224,-2.40677 -3.10231,-7.95229 -4.39005,-11.14239 -0.43903,-1.08759 -1.93186,-2.05699 -3.0601,-1.73665 -2.6545,0.7537 -5.54626,2.60133 -7.62049,4.5582 -1.17071,1.10447 -1.50847,1.92392 -1.36667,3.29639 0.72323,6.99982 3.51167,15.61263 9.10406,19.88415 4.52103,3.45322 11.48612,4.24789 16.88814,2.46389 5.64191,-1.86323 10.52602,-5.04107 12.84343,-10.51212 4.17657,-9.86022 0.50825,-23.96286 -1.01863,-34.56175 -1.56166,-10.84026 -4.7258,-17.48458 -7.3452,-28.11889 -1.93768,-7.8667 -2.26108,-11.12101 1.76935,-12.67025 4.48302,-1.72321 6.84278,2.02019 8.21469,5.26103 1.41669,3.34658 1.39546,6.51569 2.5858,8.63694 0.57396,1.02281 0.91129,1.38707 2.59807,0.98812 2.16601,-0.5123 5.15115,-2.62635 7.972416,-4.78058 1.93318,-1.4761 1.57407,-2.22173 0.38015,-7.2283 -2.09076,-8.7674 -6.925166,-18.5149 -21.513786,-16.22799 z"
         style="fill:#f7db6e;fill-opacity:1;stroke:none;stroke-width:0.26458332px;stroke-linecap:butt;stroke-linejoin:miter;stroke-opacity:1" />
    </g>
  </g>
</svg>
